<svg width="143" height="86" viewBox="0 0 143 86" fill="none" xmlns="http://www.w3.org/2000/svg">
<path d="M0 43C0 19.2517 19.2701 0 43.0409 0H99.5322C123.303 0 142.573 19.2517 142.573 43V86H43.0409C19.2701 86 0 66.7484 0 43Z" fill="#BEC2C9"/>
<path d="M99.5322 16.125H43.0409C28.1842 16.125 16.1404 28.1573 16.1404 43C16.1404 57.8427 28.1842 69.875 43.0409 69.875H99.5322C114.389 69.875 126.433 57.8427 126.433 43C126.433 28.1573 114.389 16.125 99.5322 16.125Z" fill="#FFC727"/>
<path d="M43.0409 56.4375C50.4693 56.4375 56.4912 50.4213 56.4912 43C56.4912 35.5787 50.4693 29.5625 43.0409 29.5625C35.6125 29.5625 29.5906 35.5787 29.5906 43C29.5906 50.4213 35.6125 56.4375 43.0409 56.4375Z" fill="black"/>
<path d="M37.6608 40.3125C39.1465 40.3125 40.3509 39.1093 40.3509 37.625C40.3509 36.1407 39.1465 34.9375 37.6608 34.9375C36.1751 34.9375 34.9708 36.1407 34.9708 37.625C34.9708 39.1093 36.1751 40.3125 37.6608 40.3125Z" fill="white"/>
<path d="M102.222 56.4375C109.651 56.4375 115.672 50.4213 115.672 43C115.672 35.5787 109.651 29.5625 102.222 29.5625C94.7938 29.5625 88.7719 35.5787 88.7719 43C88.7719 50.4213 94.7938 56.4375 102.222 56.4375Z" fill="black"/>
<path d="M96.8421 40.3125C98.3278 40.3125 99.5322 39.1093 99.5322 37.625C99.5322 36.1407 98.3278 34.9375 96.8421 34.9375C95.3564 34.9375 94.152 36.1407 94.152 37.625C94.152 39.1093 95.3564 40.3125 96.8421 40.3125Z" fill="white"/>
</svg>
