<svg width="30" height="31" viewBox="0 0 30 31" fill="none" xmlns="http://www.w3.org/2000/svg">
<g clip-path="url(#clip0_105_64)">
<path d="M4.6875 2.375C4.19022 2.375 3.71331 2.57254 3.36167 2.92417C3.01004 3.27581 2.8125 3.75272 2.8125 4.25V6.125C2.8125 6.62228 3.01004 7.09919 3.36167 7.45083C3.71331 7.80246 4.19022 8 4.6875 8H5.625V24.875C5.625 25.8696 6.02009 26.8234 6.72335 27.5266C7.42661 28.2299 8.38044 28.625 9.375 28.625H20.625C21.6196 28.625 22.5734 28.2299 23.2766 27.5266C23.9799 26.8234 24.375 25.8696 24.375 24.875V8H25.3125C25.8098 8 26.2867 7.80246 26.6383 7.45083C26.99 7.09919 27.1875 6.62228 27.1875 6.125V4.25C27.1875 3.75272 26.99 3.27581 26.6383 2.92417C26.2867 2.57254 25.8098 2.375 25.3125 2.375H18.75C18.75 1.87772 18.5525 1.40081 18.2008 1.04917C17.8492 0.697544 17.3723 0.5 16.875 0.5H13.125C12.6277 0.5 12.1508 0.697544 11.7992 1.04917C11.4475 1.40081 11.25 1.87772 11.25 2.375H4.6875ZM10.3125 9.875C10.5611 9.875 10.7996 9.97377 10.9754 10.1496C11.1512 10.3254 11.25 10.5639 11.25 10.8125V23.9375C11.25 24.1861 11.1512 24.4246 10.9754 24.6004C10.7996 24.7762 10.5611 24.875 10.3125 24.875C10.0639 24.875 9.8254 24.7762 9.64959 24.6004C9.47377 24.4246 9.375 24.1861 9.375 23.9375V10.8125C9.375 10.5639 9.47377 10.3254 9.64959 10.1496C9.8254 9.97377 10.0639 9.875 10.3125 9.875ZM15 9.875C15.2486 9.875 15.4871 9.97377 15.6629 10.1496C15.8387 10.3254 15.9375 10.5639 15.9375 10.8125V23.9375C15.9375 24.1861 15.8387 24.4246 15.6629 24.6004C15.4871 24.7762 15.2486 24.875 15 24.875C14.7514 24.875 14.5129 24.7762 14.3371 24.6004C14.1613 24.4246 14.0625 24.1861 14.0625 23.9375V10.8125C14.0625 10.5639 14.1613 10.3254 14.3371 10.1496C14.5129 9.97377 14.7514 9.875 15 9.875ZM20.625 10.8125V23.9375C20.625 24.1861 20.5262 24.4246 20.3504 24.6004C20.1746 24.7762 19.9361 24.875 19.6875 24.875C19.4389 24.875 19.2004 24.7762 19.0246 24.6004C18.8488 24.4246 18.75 24.1861 18.75 23.9375V10.8125C18.75 10.5639 18.8488 10.3254 19.0246 10.1496C19.2004 9.97377 19.4389 9.875 19.6875 9.875C19.9361 9.875 20.1746 9.97377 20.3504 10.1496C20.5262 10.3254 20.625 10.5639 20.625 10.8125Z" fill="#D8D8D8"/>
</g>
<defs>
<clipPath id="clip0_105_64">
<rect width="30" height="30" fill="white" transform="translate(0 0.5)"/>
</clipPath>
</defs>
</svg>
