<svg width="1708" height="1712" viewBox="0 0 1708 1712" fill="none" xmlns="http://www.w3.org/2000/svg">
<g opacity="0.15">
<path d="M95.2263 0V1266.45" stroke="black" stroke-miterlimit="10"/>
<path d="M258.09 0V1266.45" stroke="black" stroke-miterlimit="10"/>
<path d="M420.954 0V1266.45" stroke="black" stroke-miterlimit="10"/>
<path d="M583.855 0V1266.45" stroke="black" stroke-miterlimit="10"/>
<path d="M746.719 0V1266.45" stroke="black" stroke-miterlimit="10"/>
<path d="M909.583 0V1266.45" stroke="black" stroke-miterlimit="10"/>
<path d="M1072.45 0V1266.45" stroke="black" stroke-miterlimit="10"/>
<path d="M1235.35 0V1266.45" stroke="black" stroke-miterlimit="10"/>
<path d="M1398.21 0V1266.45" stroke="black" stroke-miterlimit="10"/>
<path d="M1561.08 0V1266.45" stroke="black" stroke-miterlimit="10"/>
<path d="M1650.95 28.5636H5.3501" stroke="black" stroke-miterlimit="10"/>
<path d="M1650.95 201.34H5.3501" stroke="black" stroke-miterlimit="10"/>
<path d="M1650.95 374.081H5.3501" stroke="black" stroke-miterlimit="10"/>
<path d="M1650.95 546.857H5.3501" stroke="black" stroke-miterlimit="10"/>
<path d="M1650.95 719.597H5.3501" stroke="black" stroke-miterlimit="10"/>
<path d="M1650.95 892.374H5.3501" stroke="black" stroke-miterlimit="10"/>
<path d="M1650.95 1065.11H5.3501" stroke="black" stroke-miterlimit="10"/>
<path d="M1650.95 1237.89H5.3501" stroke="black" stroke-miterlimit="10"/>
</g>
<path d="M1083.53 1367.68L1029.71 1396.09L1059.6 1420.03L1087.94 1424.84L1144.88 1397.6L1122.41 1367.68H1083.53Z" fill="#FFC727" stroke="#263238" stroke-linecap="round" stroke-linejoin="round"/>
<path d="M1029.71 1396.09L1017.82 1433.5L1061.91 1454.87H1094.62L1159.39 1434.16L1144.88 1397.6L1087.94 1424.84L1059.6 1420.03L1029.71 1396.09Z" fill="#9DA3A5" stroke="#263238" stroke-linecap="round" stroke-linejoin="round"/>
<path d="M1059.6 1420.03L1061.91 1454.87H1094.62L1087.94 1424.84L1059.6 1420.03Z" fill="#9DA3A5" stroke="#263238" stroke-linecap="round" stroke-linejoin="round"/>
<path d="M1087.94 1424.84L1144.88 1397.6L1159.39 1434.16L1094.62 1454.87L1087.94 1424.84Z" fill="#9DA3A5" stroke="#263238" stroke-linecap="round" stroke-linejoin="round"/>
<path d="M965.095 1442.87L933.704 1441.54L892.291 1450.21L936.384 1462.88L965.095 1442.87Z" fill="#FFC727" stroke="#263238" stroke-linecap="round" stroke-linejoin="round"/>
<path d="M892.291 1450.21L885.645 1471.58L945.049 1485.6L936.384 1462.88L892.291 1450.21Z" fill="#9DA3A5" stroke="#263238" stroke-linecap="round" stroke-linejoin="round"/>
<path d="M965.095 1442.87L988.445 1464.23L945.049 1485.6L936.384 1462.88L965.095 1442.87Z" fill="#9DA3A5" stroke="#263238" stroke-linecap="round" stroke-linejoin="round"/>
<path d="M1096.64 1469.56L1067.89 1482.26L1085.92 1490.92L1114.63 1482.26L1096.64 1469.56Z" fill="#FFC727" stroke="#263238" stroke-linecap="round" stroke-linejoin="round"/>
<path d="M1067.89 1482.26L1065.25 1499.63L1088.6 1512.95L1116.65 1498.27L1114.63 1482.26L1085.92 1490.92L1067.89 1482.26Z" fill="#9DA3A5" stroke="#263238" stroke-linecap="round" stroke-linejoin="round"/>
<path d="M1085.92 1490.92L1088.6 1512.95L1116.65 1498.27L1114.63 1482.26L1085.92 1490.92Z" fill="#9DA3A5" stroke="#263238" stroke-linecap="round" stroke-linejoin="round"/>
<path d="M1496.97 858.267H1401.22L1367.04 986.473L1226.87 830.915H1131.12L1153.33 995.027L1043.92 1020.69L1185.82 1176.25L1100.35 1301.04L1517.5 1454.91H1613.21L1496.97 858.267Z" fill="#9DA3A5" stroke="#263238" stroke-linecap="round" stroke-linejoin="round"/>
<path d="M1131.12 830.915L1083.24 861.681L1057.61 995.027L948.206 1020.69L1090.11 1176.25L1004.6 1301.04L1517.5 1454.91L1401.22 858.267L1271.29 986.473L1131.12 830.915Z" fill="#FFC727" stroke="#263238" stroke-linecap="round" stroke-linejoin="round"/>
<path d="M1083.2 1116.77L1080.93 1127.01" stroke="#263238" stroke-linecap="round" stroke-linejoin="round"/>
<path d="M1057.61 995.027L1066.5 997.083L1085.26 1010.08L1079.5 1041.84L1067.93 1057.73L1085.26 1080.83L1086.69 1101.06" stroke="#263238" stroke-linecap="round" stroke-linejoin="round"/>
<path d="M1067.93 1057.73L1062.17 1085.16L1027.51 1103.92" stroke="#263238" stroke-linecap="round" stroke-linejoin="round"/>
<path d="M1280.29 1060.34L1313.37 1075.06L1306.13 1128.48L1301.8 1151.58L1326.36 1199.19" stroke="#263238" stroke-linecap="round" stroke-linejoin="round"/>
<path d="M1271.29 986.472L1246.95 995.651L1248.38 1046.17L1266.74 1054.36" stroke="#263238" stroke-linecap="round" stroke-linejoin="round"/>
<path d="M1263.43 1219.97L1265.71 1229.52" stroke="#263238" stroke-linecap="round" stroke-linejoin="round"/>
<path d="M1301.8 1151.58L1297.5 1183.33L1257.05 1193.43L1260.5 1207.75" stroke="#263238" stroke-linecap="round" stroke-linejoin="round"/>
<path d="M1036.65 464.875L794.741 217.274L703.69 250.207L680.119 473.833L178.457 716.22H273.106L728.582 519.652L777.596 665.187H872.245L985.618 606.591L983.746 502.653L1036.65 464.875Z" fill="#515B60" stroke="#263238" stroke-linecap="round" stroke-linejoin="round"/>
<path d="M680.119 473.833L178.457 716.22H273.106L728.582 519.652L731.336 527.839L747.086 510.29L681.111 464.471L680.119 473.833Z" fill="#515B60" stroke="#263238" stroke-linecap="round" stroke-linejoin="round"/>
<path d="M942.001 464.875H1036.65L983.746 502.653H889.096L942.001 464.875Z" fill="#515B60" stroke="#263238" stroke-linecap="round" stroke-linejoin="round"/>
<path d="M890.969 606.591H985.618L983.746 502.653H889.096L890.969 606.591Z" fill="#9DA3A5" stroke="#263238" stroke-linecap="round" stroke-linejoin="round"/>
<path d="M1036.65 464.875L794.741 217.274H700.092L942.001 464.875H1036.65Z" fill="#9DA3A5" stroke="#263238" stroke-linecap="round" stroke-linejoin="round"/>
<path d="M942.001 464.875L700.092 217.274L255.961 377.935L9.09491 82.3865V519.799L178.457 716.22L633.933 519.652L777.596 665.187L890.969 606.591L889.096 502.653L942.001 464.875Z" fill="#FFC727" stroke="#263238" stroke-linecap="round" stroke-linejoin="round"/>
<path d="M889.096 502.653L875.916 481.69L815.301 487.49L779.211 458.596L750.317 431.171" stroke="#263238" stroke-linecap="round" stroke-linejoin="round"/>
<path d="M678.908 470.969L663.708 477.357" stroke="#263238" stroke-linecap="round" stroke-linejoin="round"/>
<path d="M779.211 458.596L756.118 461.497L735.888 447.068L699.541 462.305" stroke="#263238" stroke-linecap="round" stroke-linejoin="round"/>
<path d="M9.09491 4.29553V82.3865L255.961 377.935L308.866 359.028L9.09491 4.29553Z" fill="#9DA3A5" stroke="#263238" stroke-linecap="round" stroke-linejoin="round"/>
<g opacity="0.3">
<path d="M1406.62 342.58C1406.62 323.929 1397.29 309.133 1366.56 298.523L1365.21 298.045V242.313C1368.92 242.478 1372.6 242.982 1376.22 243.819L1379.01 256.338C1381.76 268.16 1387.45 271.354 1392.45 271.354C1394.65 271.399 1396.81 270.739 1398.61 269.472C1400.42 268.204 1401.77 266.394 1402.47 264.305C1401.19 246.242 1385.58 233.245 1365.13 231.262V210.592H1356.1V231.262C1331.98 232.951 1314.91 250.464 1314.91 272.492C1314.91 295.255 1329.04 307.554 1352.94 315.962L1355.88 316.99V373.126C1350.39 373.017 1344.91 372.378 1339.54 371.217L1336.75 358.807C1334.04 346.765 1329.04 343.791 1323.57 343.791C1321.33 343.736 1319.14 344.392 1317.3 345.666C1315.46 346.939 1314.07 348.764 1313.33 350.877C1314.21 370.336 1332.09 383.626 1355.88 383.92V407.197H1364.99V383.773C1391.13 381.019 1406.62 364.755 1406.62 342.58ZM1332.6 267.719C1332.6 253.034 1342.41 244.59 1356.03 242.68V294.851C1341.12 289.601 1332.6 281.708 1332.6 267.719ZM1364.91 372.832V320.257C1381.65 326.682 1388.81 333.511 1388.81 346.912C1388.89 361.598 1379.71 370.739 1364.99 372.832H1364.91Z" stroke="black" stroke-miterlimit="10"/>
<path d="M1359.99 447.288C1436.35 447.288 1498.26 385.385 1498.26 309.023C1498.26 232.661 1436.35 170.757 1359.99 170.757C1283.63 170.757 1221.73 232.661 1221.73 309.023C1221.73 385.385 1283.63 447.288 1359.99 447.288Z" stroke="black" stroke-miterlimit="10"/>
<path d="M1359.99 430.767C1427.23 430.767 1481.74 376.26 1481.74 309.023C1481.74 241.786 1427.23 187.279 1359.99 187.279C1292.75 187.279 1238.25 241.786 1238.25 309.023C1238.25 376.26 1292.75 430.767 1359.99 430.767Z" stroke="black" stroke-miterlimit="10"/>
</g>
<g opacity="0.3">
<path d="M444.708 157.063C444.708 143.662 438.026 133.052 415.961 125.379L415.007 125.048V85.1034C417.678 85.2291 420.332 85.5977 422.937 86.2048L424.956 95.1998C426.902 103.681 431.014 105.957 434.575 105.957C436.186 106.036 437.777 105.582 439.104 104.667C440.431 103.751 441.42 102.424 441.918 100.89C441 87.9304 429.802 78.605 415.153 77.2466V62.5609H408.618V77.2466C391.289 78.4949 379.247 91.0144 379.247 106.838C379.247 122.662 389.05 131.914 406.195 138.155L408.288 138.89V179.275C404.348 179.216 400.425 178.761 396.576 177.917L394.594 169.032C392.721 160.184 389.05 158.018 385.121 158.018C383.517 157.969 381.939 158.434 380.618 159.346C379.297 160.257 378.302 161.567 377.778 163.084C378.403 177.072 391.253 186.618 408.288 186.912V203.58H414.75V186.618C433.584 184.635 444.708 172.96 444.708 157.063ZM391.656 103.35C391.656 92.7032 398.705 86.7555 408.471 85.3604V122.809C397.714 119.064 391.656 113.373 391.656 103.35ZM414.75 178.761V141.056C426.755 145.645 431.895 150.528 431.895 160.147C431.969 170.684 425.397 177.256 414.75 178.761Z" stroke="black" stroke-miterlimit="10"/>
<path d="M411.225 232.18C466.013 232.18 510.427 187.766 510.427 132.979C510.427 78.1911 466.013 33.777 411.225 33.777C356.437 33.777 312.023 78.1911 312.023 132.979C312.023 187.766 356.437 232.18 411.225 232.18Z" stroke="black" stroke-miterlimit="10"/>
<path d="M431.501 217.953C478.422 206.757 507.383 159.644 496.188 112.723C484.993 65.8023 437.88 36.8411 390.959 48.0365C344.038 59.232 315.076 106.345 326.272 153.266C337.467 200.187 384.58 229.148 431.501 217.953Z" stroke="black" stroke-miterlimit="10"/>
</g>
<g opacity="0.3">
<path d="M1603.15 732.19C1603.15 723.232 1598.67 716.11 1583.91 710.97L1583.25 710.749V683.985C1585.04 684.082 1586.83 684.34 1588.57 684.756L1589.93 690.74C1591.22 696.431 1593.97 698.083 1596.36 698.083C1597.42 698.107 1598.45 697.792 1599.32 697.184C1600.18 696.576 1600.83 695.708 1601.17 694.705C1600.58 686.004 1593.09 679.763 1583.25 678.845V668.895H1578.88V678.808C1573.65 678.893 1568.66 681.011 1564.97 684.711C1561.28 688.412 1559.17 693.405 1559.09 698.634C1559.09 709.648 1565.85 715.485 1577.45 719.524L1578.88 720.001V747.06C1576.24 746.991 1573.61 746.684 1571.03 746.142L1569.7 740.194C1568.38 734.393 1566.03 732.851 1563.35 732.851C1562.28 732.821 1561.23 733.132 1560.34 733.739C1559.46 734.346 1558.79 735.218 1558.43 736.229C1558.84 745.628 1567.46 751.979 1578.88 752.2V763.214H1583.25V751.832C1595.7 750.694 1603.15 742.837 1603.15 732.19ZM1567.57 696.211C1567.48 693.122 1568.62 690.124 1570.73 687.869C1572.84 685.613 1575.76 684.283 1578.85 684.168V709.244C1571.65 706.747 1567.57 702.966 1567.57 696.211ZM1583.1 746.729V721.47C1591.14 724.554 1594.6 727.821 1594.6 734.283C1594.72 737.449 1593.58 740.535 1591.43 742.866C1589.29 745.197 1586.31 746.586 1583.14 746.729H1583.1Z" stroke="black" stroke-miterlimit="10"/>
<path d="M1622.58 767.766C1651.09 744.654 1655.47 702.807 1632.36 674.297C1609.24 645.787 1567.4 641.411 1538.89 664.523C1510.38 687.634 1506 729.481 1529.11 757.991C1552.22 786.501 1594.07 790.877 1622.58 767.766Z" stroke="black" stroke-miterlimit="10"/>
<path d="M1580.72 774.595C1613.04 774.595 1639.24 748.394 1639.24 716.073C1639.24 683.752 1613.04 657.55 1580.72 657.55C1548.4 657.55 1522.2 683.752 1522.2 716.073C1522.2 748.394 1548.4 774.595 1580.72 774.595Z" stroke="black" stroke-miterlimit="10"/>
</g>
<g opacity="0.3">
<path d="M1114.52 566.536C1114.52 557.541 1110.04 550.455 1095.28 545.315L1094.62 545.095V518.33C1096.42 518.412 1098.2 518.658 1099.95 519.065L1101.3 525.086C1102.63 530.777 1105.34 532.429 1107.77 532.429C1108.82 532.447 1109.86 532.129 1110.72 531.522C1111.58 530.916 1112.23 530.05 1112.58 529.051C1111.95 520.386 1104.46 514.108 1094.62 513.19V503.094H1090.29V513.007C1085.06 513.092 1080.07 515.21 1076.38 518.91C1072.68 522.611 1070.58 527.604 1070.5 532.833C1070.5 543.847 1077.29 549.684 1088.86 553.723L1090.29 554.237V581.259C1087.65 581.226 1085.01 580.919 1082.43 580.341L1081.11 574.393C1079.79 568.592 1077.44 567.05 1074.76 567.05C1073.68 567.023 1072.63 567.339 1071.74 567.953C1070.86 568.567 1070.19 569.446 1069.84 570.465C1070.28 579.827 1078.87 586.215 1090.29 586.398V597.413H1094.66V586.068C1107.07 585.003 1114.52 577.183 1114.52 566.536ZM1078.98 530.556C1078.89 527.462 1080.03 524.458 1082.15 522.202C1084.27 519.945 1087.2 518.619 1090.29 518.514V543.59C1082.95 541.056 1078.98 537.275 1078.98 530.556ZM1094.51 581.075V555.779C1102.55 558.863 1106 562.167 1106 568.592C1106.11 571.766 1104.97 574.855 1102.82 577.191C1100.67 579.527 1097.68 580.922 1094.51 581.075Z" stroke="black" stroke-miterlimit="10"/>
<path d="M1102.74 615.895C1138.97 610.046 1163.6 575.933 1157.76 539.701C1151.91 503.47 1117.79 478.839 1081.56 484.688C1045.33 490.537 1020.7 524.65 1026.55 560.882C1032.4 597.113 1066.51 621.744 1102.74 615.895Z" stroke="black" stroke-miterlimit="10"/>
<path d="M1092.13 608.904C1124.45 608.904 1150.65 582.703 1150.65 550.382C1150.65 518.061 1124.45 491.859 1092.13 491.859C1059.8 491.859 1033.6 518.061 1033.6 550.382C1033.6 582.703 1059.8 608.904 1092.13 608.904Z" stroke="black" stroke-miterlimit="10"/>
</g>
<g opacity="0.3">
<path d="M157.016 971.567C157.016 958.203 150.298 947.592 128.269 939.919L127.278 939.552V899.644C129.961 899.767 132.628 900.136 135.245 900.745L137.264 909.74C139.21 918.221 143.285 920.497 146.883 920.497C148.494 920.576 150.085 920.123 151.412 919.207C152.739 918.291 153.728 916.964 154.226 915.431C153.308 902.507 142.11 893.182 127.425 891.823V876.918H120.779V891.603C103.45 892.815 91.408 905.371 91.408 921.195C91.408 937.019 101.504 946.307 118.65 952.365L120.779 953.099V993.485C116.842 993.389 112.922 992.934 109.068 992.127L107.085 983.205C105.102 974.577 101.504 972.448 97.6127 972.448C96.0085 972.399 94.4307 972.864 93.1097 973.776C91.7887 974.687 90.7937 975.997 90.2699 977.514C90.894 991.466 103.707 1001.01 120.779 1001.31V1018.01H127.314V1001.01C145.892 999.176 157.016 987.501 157.016 971.567ZM103.964 917.891C103.964 907.243 110.977 901.296 120.779 899.937V937.349C110.022 933.604 103.964 927.95 103.964 917.891ZM127.131 993.301V955.596C139.136 960.185 144.276 965.105 144.276 974.724C144.276 985.261 137.705 991.796 127.131 993.301Z" stroke="black" stroke-miterlimit="10"/>
<path d="M123.533 1046.72C178.32 1046.72 222.735 1002.31 222.735 947.519C222.735 892.731 178.32 848.317 123.533 848.317C68.7454 848.317 24.3313 892.731 24.3313 947.519C24.3313 1002.31 68.7454 1046.72 123.533 1046.72Z" stroke="black" stroke-miterlimit="10"/>
<path d="M185.282 1009.3C219.392 975.189 219.392 919.886 185.282 885.777C151.173 851.667 95.8704 851.667 61.7608 885.777C27.6513 919.886 27.6513 975.189 61.7608 1009.3C95.8704 1043.41 151.173 1043.41 185.282 1009.3Z" stroke="black" stroke-miterlimit="10"/>
</g>
<path d="M330.087 1367.86L319.073 1421.13C319.073 1421.13 280.156 1450.76 271.675 1454.17C260.983 1459 250.542 1464.37 240.394 1470.25C236.172 1472.79 237.016 1477.85 247.149 1482.11C257.283 1486.37 273.363 1486.34 290.289 1482.11C307.214 1477.89 341.064 1468.57 348.664 1468.57C356.264 1468.57 377.448 1472.79 381.707 1462.66C385.966 1452.52 374.951 1416.95 374.107 1408.5C373.263 1400.06 378.329 1371.27 378.329 1371.27L330.087 1367.86Z" fill="#9DA3A5" stroke="#263238" stroke-linecap="round" stroke-linejoin="round"/>
<path d="M240.431 1470.22C236.209 1472.75 237.053 1477.82 247.186 1482.08C257.319 1486.34 273.4 1486.3 290.325 1482.08C307.251 1477.85 341.101 1468.53 348.701 1468.53C356.301 1468.53 377.485 1472.75 381.743 1462.62C384.167 1456.74 381.744 1442.43 378.733 1429.58C366.801 1437.91 338.604 1437.91 338.604 1437.91C338.075 1434.06 336.28 1430.49 333.501 1427.78C329.627 1423.95 324.564 1421.55 319.146 1420.98C319.146 1420.98 280.229 1450.61 271.748 1454.03C261.041 1458.89 250.589 1464.29 240.431 1470.22Z" fill="#263238" stroke="#263238" stroke-linecap="round" stroke-linejoin="round"/>
<path d="M292.859 1471.06C292.859 1471.06 264.111 1466.84 248.802 1462.62C233.492 1458.4 221.743 1456.67 202.285 1446.54C182.826 1436.4 162.523 1427.08 153.198 1433.83C143.873 1440.59 150.665 1464.31 163.368 1476.13C174.878 1487.27 188.361 1496.17 203.129 1502.38C214.951 1506.6 231.032 1512.51 243.735 1510.82C256.438 1509.14 268.26 1501.5 279.274 1501.5C288.059 1501.24 296.816 1500.39 305.488 1498.97L292.859 1471.06Z" fill="#9DA3A5" stroke="#263238" stroke-linecap="round" stroke-linejoin="round"/>
<path d="M153.271 1433.83C143.983 1440.59 150.738 1464.31 163.441 1476.13C174.951 1487.27 188.435 1496.17 203.203 1502.38C215.025 1506.6 231.105 1512.51 243.809 1510.82C249.977 1509.73 256.017 1508.01 261.835 1505.68C256.476 1505.15 251.241 1503.73 246.342 1501.5C240.559 1496.63 235.181 1491.3 230.261 1485.56C233.16 1486.23 236.169 1486.28 239.087 1485.69C242.005 1485.11 244.765 1483.92 247.186 1482.19C255.667 1476.24 248.875 1462.73 248.875 1462.73C233.639 1458.47 221.817 1456.78 202.358 1446.65C182.9 1436.51 162.597 1427.08 153.271 1433.83Z" fill="#263238" stroke="#263238" stroke-linecap="round" stroke-linejoin="round"/>
<path d="M621.12 1207.97L603.35 1221.48C603.35 1221.48 504.222 1064.12 457.852 1033.69C411.482 1003.25 373.226 1008.32 363.937 1026.93C354.648 1045.55 320.798 1377.99 320.798 1377.99L397.898 1383.1L432.556 1197.8L542.698 1342.64C542.698 1342.64 452.051 1405.93 429.215 1418.6C406.379 1431.26 285.406 1466 285.406 1466L297.264 1513.36C297.264 1513.36 392.721 1497.28 457.154 1482.08C521.588 1466.88 560.358 1460.05 573.061 1450.76C585.764 1441.47 605.186 1422.86 611.097 1421.13C617.008 1419.41 632.244 1408.47 704.167 1399.98C776.09 1391.5 829.362 1373.77 839.532 1353.47C849.702 1333.16 842.91 1284.11 842.91 1280.04C842.91 1275.96 843.754 1253.83 837.843 1249.6C831.932 1245.38 733.796 1245.38 709.344 1237.74C684.892 1230.11 621.12 1207.97 621.12 1207.97Z" fill="#263238" stroke="#263238" stroke-linecap="round" stroke-linejoin="round"/>
<path d="M628.169 883.196C628.169 883.196 525.993 907.133 521.367 916.238C516.742 925.343 422.863 1071.03 425.764 1075.61C428.664 1080.2 440.45 1125.33 440.45 1125.33C440.45 1125.33 462.478 1109.69 480.064 1109.69C497.65 1109.69 512.262 1110.6 512.262 1110.6L509.509 1071.94L574.787 1015.62C574.787 1015.62 629.858 1113.21 633.529 1123.34C637.201 1133.48 632.611 1162.96 628.903 1174.93C625.195 1186.9 616.017 1188.73 615.099 1199.78L614.181 1210.8C614.181 1210.8 676.595 1239.32 686.912 1242.08C697.228 1244.83 708.94 1247.62 708.94 1247.62C709.938 1254.02 709.938 1260.53 708.94 1266.93C706.302 1274.32 702.906 1281.42 698.807 1288.12C698.807 1288.12 726.416 1258.74 766.031 1256.84C805.645 1254.93 813.759 1254.05 821.102 1258.67C828.445 1263.3 843.13 1285.36 843.13 1285.36L846.802 1299.17C846.393 1277.63 847.621 1256.09 850.473 1234.73C855.062 1204.33 855.062 1162.92 859.688 1144.49C864.314 1126.06 879.918 978.763 880.836 962.205C881.754 945.646 872.575 906.95 864.278 899.57C855.98 892.191 748.738 862.122 731.483 862.856C714.227 863.59 628.169 883.196 628.169 883.196Z" fill="white" stroke="#263238" stroke-linecap="round" stroke-linejoin="round"/>
<path d="M726.012 1206.28C726.012 1206.28 792.098 1198.64 820.771 1138.58" stroke="#263238" stroke-linecap="round" stroke-linejoin="round"/>
<path d="M808.913 1174.96C808.913 1174.96 775.099 1207.12 739.56 1217.26" stroke="#263238" stroke-linecap="round" stroke-linejoin="round"/>
<path d="M641.423 1125.77C641.423 1125.77 653.281 1145.22 664.259 1153.67" stroke="#263238" stroke-linecap="round" stroke-linejoin="round"/>
<path d="M548.976 982.618L574.787 1015.77L545.305 994.586" stroke="#263238" stroke-linecap="round" stroke-linejoin="round"/>
<path d="M509.399 1071.94C509.399 1071.94 485.461 1057.26 463.359 1054.43" stroke="#263238" stroke-linecap="round" stroke-linejoin="round"/>
<path d="M472.574 1045.25C481.329 1047.45 489.498 1051.54 496.512 1057.22" stroke="#263238" stroke-linecap="round" stroke-linejoin="round"/>
<path d="M829.803 1069.19L797.568 1035.12" stroke="#263238" stroke-linecap="round" stroke-linejoin="round"/>
<path d="M832.557 1077.45L785.599 1052.59" stroke="#263238" stroke-linecap="round" stroke-linejoin="round"/>
<path d="M697.228 1023.15L733.135 958.68L690.767 1010.26L676.962 1004.72L646.599 951.337V967.895L671.455 1022.23L683.424 1074.7L678.798 1210.98L643.809 1263.44L648.435 1286.46L700.9 1262.53L702.735 1208.19L694.475 1076.53L697.228 1023.15Z" fill="#FFC727" stroke="#263238" stroke-linecap="round" stroke-linejoin="round"/>
<path d="M626.333 909.887C626.333 909.887 620.826 937.533 621.744 952.255C622.662 966.977 631.84 1004.61 631.84 1004.61C631.84 1004.61 641.056 973.329 646.526 967.895C651.996 962.461 657.54 954.091 660.331 955.008C663.121 955.926 700.716 954.641 700.716 954.641C700.716 954.641 725.792 970.649 731.336 978.946C736.88 987.244 750.647 1008.32 750.647 1008.32C750.647 1008.32 750.647 951.227 749.73 930.043C748.812 908.859 744.076 862.966 732.033 862.966C719.991 862.966 638.302 848.207 626.333 909.887Z" fill="white" stroke="#263238" stroke-linecap="round" stroke-linejoin="round"/>
<path d="M652.107 935.66C652.107 935.66 662.24 956.844 668.701 969.731C675.163 982.618 684.342 995.431 688.013 990.915C691.684 986.399 699.982 962.388 703.653 939.515C707.325 916.642 652.107 935.66 652.107 935.66Z" stroke="#263238" stroke-linecap="round" stroke-linejoin="round"/>
<path d="M605.883 894.467C605.883 894.467 626.774 933.017 632.391 939.442C645.888 952.124 660.402 963.679 675.787 973.99C679.899 975.7 684.405 976.232 688.802 975.525C693.198 974.818 697.311 972.901 700.679 969.988C707.104 963.563 731.997 916.165 732.804 904.123C733.211 895.548 732.941 886.955 731.997 878.423C731.997 878.423 737.614 875.192 740.845 857.532C744.076 839.873 746.462 832.64 729.573 822.984C712.685 813.329 682.983 827.794 666.131 843.875C649.28 859.956 601.992 883.122 601.992 883.122L605.883 894.467Z" fill="white" stroke="#263238" stroke-linecap="round" stroke-linejoin="round"/>
<path d="M687.022 753.815C687.022 753.815 673.364 735.458 631.583 743.351C589.803 751.245 548.059 797.174 545.635 809.217C544.334 819.615 544.334 830.135 545.635 840.534L561.606 826.913C561.606 826.913 549.564 854.191 555.181 866.234C559.198 874.566 563.76 882.624 568.839 890.355L580.881 876.697C580.881 876.697 593.731 900.782 598.541 903.205L621.854 892.741L625.048 904.013C625.048 904.013 637.898 896.67 651.556 889.547C665.214 882.425 675.677 860.616 675.677 860.616L674.869 888.739C674.869 888.739 692.529 886.316 698.954 879.891C705.379 873.466 710.996 851.805 710.996 851.805L719.844 878.313C719.844 878.313 726.269 853.384 727.187 844.572C728.105 835.761 728.766 830.915 728.766 830.915C731.63 832.69 734.105 835.027 736.042 837.784C737.979 840.541 739.338 843.662 740.037 846.959C741.136 852.301 740.858 857.834 739.229 863.04C739.229 863.04 750.464 843.765 749.656 828.491C748.848 813.218 746.462 805.215 733.612 787.555C726.325 777.325 717.679 768.136 707.912 760.24C707.912 760.24 703.874 746.582 698.256 740.965C692.639 735.348 688.637 736.119 688.637 736.119L692.639 754.476L687.022 753.815Z" fill="#263238" stroke="#263238" stroke-linecap="round" stroke-linejoin="round"/>
<path d="M670.097 948.106C670.097 948.106 675.787 954.274 680.523 952.842C685.259 951.411 690.473 948.106 690.913 944.802" stroke="#263238" stroke-linecap="round" stroke-linejoin="round"/>
<path d="M675.31 960.405L690.473 958.056" stroke="#263238" stroke-linecap="round" stroke-linejoin="round"/>
<path d="M633.639 922.076C636.81 924.417 640.667 925.64 644.607 925.553C648.546 925.467 652.346 924.076 655.411 921.599" stroke="#263238" stroke-linecap="round" stroke-linejoin="round"/>
<path d="M631.363 917.34C637.531 910.695 655.998 912.126 655.998 912.126L665.471 919.689L670.207 941.461" stroke="#263238" stroke-linecap="round" stroke-linejoin="round"/>
<path d="M684.782 913.999C684.782 913.999 698.991 919.212 705.122 907.39" stroke="#263238" stroke-linecap="round" stroke-linejoin="round"/>
<path d="M684.305 905.004C689.797 902.348 695.494 900.138 701.34 898.395C705.248 897.552 709.291 897.552 713.199 898.395" stroke="#263238" stroke-linecap="round" stroke-linejoin="round"/>
<path d="M906.205 1203.75C906.205 1203.75 907.05 1251.11 907.05 1295.09C906.828 1319.14 908.251 1343.17 911.308 1367.01C911.308 1367.01 941.744 1372.08 949.344 1372.08C961.313 1372.85 973.055 1375.71 984.039 1380.53C995.053 1385.63 1010.29 1387.32 1004.34 1391.54C998.394 1395.76 991.676 1394.07 980.662 1393.23C969.647 1392.38 959.514 1392.38 959.514 1392.38C959.514 1392.38 972.217 1401.67 968.803 1404.24C965.388 1406.81 961.203 1403.4 953.603 1401.67C946.003 1399.95 946.811 1398.3 937.522 1398.3C928.234 1398.3 918.908 1399.14 907.894 1394.92C896.88 1390.7 885.866 1370.39 885.058 1364.48C884.25 1358.57 846.141 1204.59 846.141 1204.59L906.205 1203.75Z" fill="white" stroke="#263238" stroke-linecap="round" stroke-linejoin="round"/>
<path d="M959.514 1392.38L931.611 1385.63" stroke="#263238" stroke-linecap="round" stroke-linejoin="round"/>
<path d="M816.916 1017.61L842.616 1190.71L907.086 1184.25C907.086 1184.25 898.789 1125.33 900.625 1086.67C902.46 1048.01 892.327 916.348 888.656 907.133C884.984 897.918 833.401 892.448 833.401 892.448" fill="white"/>
<path d="M816.916 1017.61L842.616 1190.71L907.086 1184.25C907.086 1184.25 898.789 1125.33 900.625 1086.67C902.46 1048.01 892.327 916.348 888.656 907.133C884.984 897.918 833.401 892.448 833.401 892.448" stroke="#263238" stroke-linecap="round" stroke-linejoin="round"/>
<path d="M514.943 1125.33C514.943 1125.33 539.798 1255.15 542.552 1261.61C545.305 1268.07 553.566 1350.9 553.566 1353.69C553.566 1356.48 551.73 1379.39 551.73 1379.39H544.387L543.469 1360.04L542.552 1342.56L536.347 1386.99L527.499 1388.38V1362.24C527.499 1360.11 526.801 1340.21 526.801 1340.21L518.687 1376.27L516.558 1381.92L510.206 1381.55L511.271 1366.87L511.602 1336.47H505.948C505.948 1336.47 504.185 1354.5 504.552 1356.99C504.92 1359.49 504.552 1376.41 504.552 1376.41L498.531 1373.95L496.071 1351.93L495.337 1321.89L510.023 1256.14L445.7 1130.32C445.7 1130.32 467.361 1078.92 514.943 1125.33Z" fill="white" stroke="#263238" stroke-linecap="round" stroke-linejoin="round"/>
<path d="M425.764 1106.01L444.121 1142.73C450.382 1134.07 459.473 1127.88 469.821 1125.22C486.379 1121.54 514.943 1125.22 514.943 1125.22L518.614 1089.31C518.614 1089.31 453.226 1075.61 425.764 1106.01Z" fill="white" stroke="#263238" stroke-linecap="round" stroke-linejoin="round"/>
<path d="M831.786 1179.19L844.305 1218.95C853.829 1220.46 863.447 1221.31 873.089 1221.48C886.6 1221.48 915.384 1211.35 915.384 1211.35V1163.1C915.384 1163.1 868.133 1174.12 831.786 1179.19Z" fill="white" stroke="#263238" stroke-linecap="round" stroke-linejoin="round"/>
<path d="M566.966 1337.39C566.966 1337.39 707.398 1290.98 731.96 1276.48C756.522 1261.98 813.172 1258.71 820.771 1282.39" stroke="#949494" stroke-linecap="round" stroke-linejoin="round"/>
<path d="M607.572 1228.27C607.572 1228.27 628.72 1246.89 638.045 1264.66" stroke="#263238" stroke-linecap="round" stroke-linejoin="round"/>
<path d="M819.817 1472.2L697.412 1513.91L889.353 1570.96L988.115 1511.15L819.817 1472.2Z" fill="white" stroke="#263238" stroke-linecap="round" stroke-linejoin="round"/>
<path d="M707.141 1465.22L836.485 1512.51C836.485 1512.51 744.7 1551.47 725.204 1557.05C710.888 1561.49 696.943 1567.05 683.497 1573.68L558.302 1512.44C558.302 1512.44 690.436 1473.6 707.141 1465.22Z" fill="white" stroke="#263238" stroke-linecap="round" stroke-linejoin="round"/>
<path d="M1237.88 1496.14L1367.22 1543.43C1367.22 1543.43 1275.44 1582.38 1255.94 1587.92C1241.63 1592.41 1227.69 1597.99 1214.24 1604.63L1089.04 1543.43C1089.04 1543.43 1221.18 1504.47 1237.88 1496.14Z" fill="white" stroke="#263238" stroke-linecap="round" stroke-linejoin="round"/>
<path d="M480.395 1499.99C480.395 1499.99 561.166 1548.71 611.134 1559.84C611.134 1559.84 524.892 1614.06 483.185 1625.19C483.185 1625.19 366.324 1587.63 332.951 1565.38C332.951 1565.38 437.255 1522.28 480.395 1499.99Z" fill="white" stroke="#263238" stroke-linecap="round" stroke-linejoin="round"/>
<path d="M193.841 1135.57C184.728 1156.42 173.035 1176.04 159.036 1193.98C135.392 1224.56 115.933 1246.92 115.933 1246.92C135.451 1255.91 156.009 1262.45 177.136 1266.38C199.158 1270.6 221.5 1272.94 243.919 1273.36C243.919 1273.36 287.021 1234.4 300.936 1209.36C310.567 1192.48 321.26 1176.22 332.95 1160.68C332.95 1160.68 217.484 1153.63 193.841 1135.57Z" fill="white" stroke="#263238" stroke-linecap="round" stroke-linejoin="round"/>
<path d="M1347.99 506.545C1338.87 527.395 1327.18 547.019 1313.18 564.957C1289.54 595.54 1270.08 617.826 1270.08 617.826C1289.6 626.817 1310.15 633.353 1331.28 637.284C1353.3 641.506 1375.65 643.84 1398.06 644.26C1398.06 644.26 1441.17 605.306 1455.08 580.267C1464.71 563.379 1475.41 547.118 1487.1 531.584C1487.1 531.584 1371.63 524.608 1347.99 506.545Z" fill="white" stroke="#263238" stroke-linecap="round" stroke-linejoin="round"/>
<path d="M360.045 788.473C360.045 788.473 322.413 826.142 306.737 863.774C296.576 889.163 288.7 915.407 283.203 942.195L411.702 979.827C411.702 979.827 416.402 928.06 432.115 890.428C447.829 852.796 485.424 808.886 485.424 808.886C485.424 808.886 414.97 774.375 360.045 788.473Z" fill="white" stroke="#263238" stroke-linecap="round" stroke-linejoin="round"/>
<path d="M1045.24 30.2892C1045.24 30.2892 1007.61 67.9211 991.933 105.553C981.755 130.948 973.879 157.207 968.399 184.011L1096.9 221.643C1096.9 221.643 1101.6 169.876 1117.27 132.244C1132.95 94.6123 1170.62 50.6655 1170.62 50.6655C1170.62 50.6655 1100.13 16.1542 1045.24 30.2892Z" fill="white" stroke="#263238" stroke-linecap="round" stroke-linejoin="round"/>
<path d="M87.0391 530.446C77.9408 551.296 66.2599 570.92 52.2708 588.858C28.6269 619.478 9.13165 641.727 9.13165 641.727C28.6624 650.726 49.2318 657.274 70.3709 661.222C92.383 665.421 114.712 667.742 137.117 668.161C137.117 668.161 180.256 629.207 194.171 604.168C203.797 587.285 214.478 571.025 226.149 555.485C226.149 555.485 110.683 548.546 87.0391 530.446Z" fill="white" stroke="#263238" stroke-linecap="round" stroke-linejoin="round"/>
</svg>
