<svg width="1708" height="1260" viewBox="0 0 1708 1260" fill="none" xmlns="http://www.w3.org/2000/svg">
<path d="M1536.49 1173.08H1423.38V1173.94H1536.49V1173.08Z" fill="#EBEBEB"/>
<path d="M1131.18 1182.37H1101.5V1183.23H1131.18V1182.37Z" fill="#EBEBEB"/>
<path d="M1419.97 1141.39H1354.43V1142.24H1419.97V1141.39Z" fill="#EBEBEB"/>
<path d="M326.663 1147.13H179.161V1147.98H326.663V1147.13Z" fill="#EBEBEB"/>
<path d="M378.71 1147.13H357.092V1147.98H378.71V1147.13Z" fill="#EBEBEB"/>
<path d="M768.93 1161.54H448.995V1162.39H768.93V1161.54Z" fill="#EBEBEB"/>
<path d="M809.4 965.815H149.995C144.823 965.815 139.863 963.761 136.206 960.104C132.549 956.447 130.494 951.487 130.494 946.315V19.33C130.539 14.1877 132.614 9.27138 136.266 5.65113C139.918 2.03088 144.853 -0.000197145 149.995 1.43525e-08H809.4C814.572 1.43525e-08 819.532 2.05454 823.189 5.71163C826.846 9.36873 828.901 14.3288 828.901 19.5007V946.315C828.901 951.487 826.846 956.447 823.189 960.104C819.532 963.761 814.572 965.815 809.4 965.815ZM149.995 0.68304C145.052 0.692068 140.315 2.65955 136.82 6.15457C133.325 9.64959 131.357 14.3873 131.348 19.33V946.315C131.357 951.257 133.325 955.995 136.82 959.49C140.315 962.985 145.052 964.953 149.995 964.962H809.4C814.343 964.953 819.08 962.985 822.575 959.49C826.07 955.995 828.038 951.257 828.047 946.315V19.33C828.038 14.3873 826.07 9.64959 822.575 6.15457C819.08 2.65955 814.343 0.692068 809.4 0.68304H149.995Z" fill="#EBEBEB"/>
<path d="M1548.14 965.815H888.666C883.497 965.806 878.543 963.749 874.887 960.094C871.232 956.439 869.175 951.484 869.166 946.315V19.33C869.22 14.1905 871.297 9.27933 874.947 5.66099C878.597 2.04265 883.527 0.00870289 888.666 0H1548.14C1553.27 0.0177743 1558.19 2.05679 1561.82 5.67512C1565.46 9.29344 1567.53 14.1995 1567.57 19.33V946.315C1567.57 951.475 1565.53 956.425 1561.88 960.08C1558.24 963.735 1553.3 965.797 1548.14 965.815ZM888.666 0.68304C883.724 0.692068 878.986 2.65955 875.491 6.15457C871.996 9.64959 870.029 14.3873 870.02 19.33V946.315C870.029 951.257 871.996 955.995 875.491 959.49C878.986 962.985 883.724 964.953 888.666 964.962H1548.14C1553.08 964.953 1557.82 962.985 1561.31 959.49C1564.81 955.995 1566.78 951.257 1566.79 946.315V19.33C1566.78 14.3873 1564.81 9.64959 1561.31 6.15457C1557.82 2.65955 1553.08 0.692068 1548.14 0.68304H888.666Z" fill="#EBEBEB"/>
<path d="M1707.59 1118.13H0V1118.99H1707.59V1118.13Z" fill="#EBEBEB"/>
<path d="M1277.52 768.827V1120.22H1300.5H1434.04H1457.02V768.827H1277.52Z" fill="#EBEBEB"/>
<path d="M1311.98 725.455V803.321H1326.15H1408.39H1422.56V725.455H1311.98Z" fill="#EBEBEB"/>
<path d="M1311.98 780.337H1288.99V803.321H1311.98V780.337Z" fill="#FAFAFA"/>
<path d="M1356.51 780.337H1333.53V803.321H1356.51V780.337Z" fill="#FAFAFA"/>
<path d="M1401.01 780.337H1378.03V803.321H1401.01V780.337Z" fill="#FAFAFA"/>
<path d="M1445.55 780.337H1422.56V803.321H1445.55V780.337Z" fill="#F0F0F0"/>
<path d="M1311.98 822.07H1288.99V845.055H1311.98V822.07Z" fill="#F0F0F0"/>
<path d="M1356.51 822.07H1333.53V845.055H1356.51V822.07Z" fill="#F0F0F0"/>
<path d="M1401.01 822.07H1378.03V845.055H1401.01V822.07Z" fill="#FAFAFA"/>
<path d="M1445.55 822.07H1422.56V845.055H1445.55V822.07Z" fill="#FAFAFA"/>
<path d="M1311.98 863.838H1288.99V886.822H1311.98V863.838Z" fill="#F0F0F0"/>
<path d="M1356.51 863.838H1333.53V886.822H1356.51V863.838Z" fill="#FAFAFA"/>
<path d="M1401.01 863.838H1378.03V886.822H1401.01V863.838Z" fill="#FAFAFA"/>
<path d="M1356.51 744.238H1333.53V767.222H1356.51V744.238Z" fill="#FAFAFA"/>
<path d="M1401.01 744.238H1378.03V767.222H1401.01V744.238Z" fill="#F0F0F0"/>
<path d="M1445.55 863.838H1422.56V886.822H1445.55V863.838Z" fill="#F0F0F0"/>
<path d="M1311.98 905.606H1288.99V928.59H1311.98V905.606Z" fill="#FAFAFA"/>
<path d="M1356.51 905.606H1333.53V928.59H1356.51V905.606Z" fill="#F0F0F0"/>
<path d="M1401.01 905.606H1378.03V928.59H1401.01V905.606Z" fill="#F0F0F0"/>
<path d="M1445.55 905.606H1422.56V928.59H1445.55V905.606Z" fill="#FAFAFA"/>
<path d="M1311.98 947.374H1288.99V970.358H1311.98V947.374Z" fill="#F0F0F0"/>
<path d="M1356.51 947.374H1333.53V970.358H1356.51V947.374Z" fill="#FAFAFA"/>
<path d="M1401.01 947.374H1378.03V970.358H1401.01V947.374Z" fill="#FAFAFA"/>
<path d="M1445.55 947.374H1422.56V970.358H1445.55V947.374Z" fill="#F0F0F0"/>
<path d="M1311.98 989.107H1288.99V1012.09H1311.98V989.107Z" fill="#F0F0F0"/>
<path d="M1356.51 989.107H1333.53V1012.09H1356.51V989.107Z" fill="#FAFAFA"/>
<path d="M1401.01 989.107H1378.03V1012.09H1401.01V989.107Z" fill="#F0F0F0"/>
<path d="M1445.55 989.107H1422.56V1012.09H1445.55V989.107Z" fill="#FAFAFA"/>
<path d="M1311.98 1030.88H1288.99V1053.86H1311.98V1030.88Z" fill="#FAFAFA"/>
<path d="M1356.51 1030.88H1333.53V1053.86H1356.51V1030.88Z" fill="#FAFAFA"/>
<path d="M1401.01 1030.88H1378.03V1053.86H1401.01V1030.88Z" fill="#F0F0F0"/>
<path d="M1445.55 1030.88H1422.56V1053.86H1445.55V1030.88Z" fill="#F0F0F0"/>
<path d="M1311.98 1072.64H1288.99V1095.63H1311.98V1072.64Z" fill="#F0F0F0"/>
<path d="M1445.55 1072.64H1422.56V1095.63H1445.55V1072.64Z" fill="#FAFAFA"/>
<path d="M1401.05 1072.64H1333.53V1079.23H1336.26V1120.22H1342.85V1079.23H1391.69V1120.22H1398.32V1079.23H1401.05V1072.64Z" fill="#F5F5F5"/>
<path d="M1367.27 1079.23H1342.85V1120.22H1367.27V1079.23Z" fill="#E6E6E6"/>
<path d="M1391.69 1079.23H1367.27V1120.22H1391.69V1079.23Z" fill="#EBEBEB"/>
<path d="M228.647 768.827V1120.22H251.597H385.165H408.149V768.827H228.647Z" fill="#F5F5F5"/>
<path d="M240.122 780.337V822.07V833.579V845.055H263.106V833.579V822.07V780.337H240.122Z" fill="#E6E6E6"/>
<path d="M284.656 780.337V822.07V833.579V845.055H307.64V833.579V822.07V780.337H284.656Z" fill="#F0F0F0"/>
<path d="M329.156 780.337V822.07V833.579V845.055H352.14V833.579V822.07V780.337H329.156Z" fill="#E6E6E6"/>
<path d="M373.69 780.337V822.07V839.829V845.055H396.674V839.829V822.07V780.337H373.69Z" fill="#F0F0F0"/>
<path d="M240.122 863.838V905.606V917.081V928.59H263.106V917.081V905.606V863.838H240.122Z" fill="#F0F0F0"/>
<path d="M284.656 863.838V905.606V921.794V928.59H307.64V921.794V905.606V863.838H284.656Z" fill="#F0F0F0"/>
<path d="M329.156 863.838V905.606V917.081V928.59H352.14V917.081V905.606V863.838H329.156Z" fill="#E6E6E6"/>
<path d="M373.69 863.838V905.606V917.081V928.59H396.674V917.081V905.606V863.838H373.69Z" fill="#F0F0F0"/>
<path d="M240.122 947.374V989.107V1000.62V1012.09H263.106V1000.62V989.107V947.374H240.122Z" fill="#E6E6E6"/>
<path d="M284.656 947.374V989.107V1000.62V1012.09H307.64V1000.62V989.107V947.374H284.656Z" fill="#F0F0F0"/>
<path d="M329.156 947.374V989.107V1000.62V1012.09H352.14V1000.62V989.107V947.374H329.156Z" fill="#F0F0F0"/>
<path d="M373.69 947.374V989.107V1004.99V1012.09H396.674V1004.99V989.107V947.374H373.69Z" fill="#E6E6E6"/>
<path d="M385.165 1030.88H373.69H352.14H329.156H307.64H284.656H240.122V1053.86H284.656H307.64H329.156H352.14H373.69H385.165H396.674V1030.88H385.165Z" fill="#F0F0F0"/>
<path d="M352.14 1072.64H284.656V1079.23H287.388V1120.22H293.979V1079.23H342.817V1120.22H349.408V1079.23H352.14V1072.64Z" fill="#EBEBEB"/>
<path d="M318.398 1079.23H293.979V1120.22H318.398V1079.23Z" fill="#FAFAFA"/>
<path d="M342.817 1079.23H318.398V1120.22H342.817V1079.23Z" fill="#F5F5F5"/>
<path d="M408.149 928.59V1120.22H431.134H564.702H587.652V928.59H408.149Z" fill="#E6E6E6"/>
<path d="M442.643 947.374H419.658V970.358H442.643V947.374Z" fill="#F0F0F0"/>
<path d="M487.143 947.374H464.158V970.358H487.143V947.374Z" fill="#F0F0F0"/>
<path d="M531.677 947.374H508.692V970.358H531.677V947.374Z" fill="#F0F0F0"/>
<path d="M576.177 947.374H553.192V970.358H576.177V947.374Z" fill="#F0F0F0"/>
<path d="M442.643 989.107H419.658V1012.09H442.643V989.107Z" fill="#F0F0F0"/>
<path d="M487.143 989.107H464.158V1012.09H487.143V989.107Z" fill="#F0F0F0"/>
<path d="M531.677 989.107H508.692V1012.09H531.677V989.107Z" fill="#F0F0F0"/>
<path d="M576.177 989.107H553.192V1012.09H576.177V989.107Z" fill="#F0F0F0"/>
<path d="M442.643 1030.88H419.658V1053.86H442.643V1030.88Z" fill="#F0F0F0"/>
<path d="M487.143 1030.88H464.158V1053.86H487.143V1030.88Z" fill="#F0F0F0"/>
<path d="M531.677 1030.88H508.692V1053.86H531.677V1030.88Z" fill="#F0F0F0"/>
<path d="M576.177 1030.88H553.192V1053.86H576.177V1030.88Z" fill="#F0F0F0"/>
<path d="M442.643 1072.64H419.658V1095.63H442.643V1072.64Z" fill="#F0F0F0"/>
<path d="M576.177 1072.64H553.192V1095.63H576.177V1072.64Z" fill="#F0F0F0"/>
<path d="M531.677 1072.64H464.158V1079.23H466.891V1120.22H473.482V1079.23H522.353V1120.22H528.945V1079.23H531.677V1072.64Z" fill="#F5F5F5"/>
<path d="M497.9 1079.23H473.482V1120.22H497.9V1079.23Z" fill="#E6E6E6"/>
<path d="M522.319 1079.23H497.9V1120.22H522.319V1079.23Z" fill="#EBEBEB"/>
<path d="M1066.36 768.827V1120.22H1089.34H1222.91H1245.9V768.827H1066.36Z" fill="#FAFAFA"/>
<path d="M1131.69 1030.88H1122.37H1077.87V1042.38V1053.86V1095.63H1100.85V1053.86H1122.37H1131.69H1145.35V1030.88H1131.69Z" fill="#F0F0F0"/>
<path d="M1218.71 1030.88H1211.4H1166.9V1053.86H1211.4V1095.63H1234.39V1053.86V1037.23V1030.88H1218.71Z" fill="#F0F0F0"/>
<path d="M1189.89 1072.64H1122.37V1079.23H1125.1V1120.22H1131.69V1079.23H1180.56V1120.22H1187.15V1079.23H1189.89V1072.64Z" fill="#F5F5F5"/>
<path d="M1156.11 1079.23H1131.69V1120.22H1156.11V1079.23Z" fill="#EBEBEB"/>
<path d="M1180.53 1079.23H1156.11V1120.22H1180.53V1079.23Z" fill="#E0E0E0"/>
<path d="M1145.35 780.337H1077.87V845.089H1145.35V780.337Z" fill="#F0F0F0"/>
<path d="M1234.39 780.337H1166.9V845.089H1234.39V780.337Z" fill="#F0F0F0"/>
<path d="M1145.35 863.838H1077.87V928.59H1145.35V863.838Z" fill="#F0F0F0"/>
<path d="M1234.39 863.838H1166.9V928.59H1234.39V863.838Z" fill="#F0F0F0"/>
<path d="M1145.35 947.374H1077.87V1012.13H1145.35V947.374Z" fill="#F0F0F0"/>
<path d="M1234.39 947.374H1166.9V1012.13H1234.39V947.374Z" fill="#F0F0F0"/>
<path d="M429.528 685.394C428.221 686.54 427.275 688.041 426.804 689.714C426.333 691.387 426.357 693.16 426.874 694.82C427.391 696.479 428.378 697.953 429.716 699.063C431.054 700.172 432.686 700.869 434.412 701.07C490.114 707.081 602.713 715.38 633.176 688.57C672.348 654.077 560.774 686.692 552.168 678.837C543.562 670.982 574.128 653.633 550.085 654.077C533.248 654.384 507.019 684.233 480.107 680.272C458.148 677.061 487.416 661.112 467.027 661.112C449.405 661.112 441.311 674.876 429.528 685.394Z" fill="#F0F0F0"/>
<path d="M536.731 676.481C535.789 677.293 535.103 678.361 534.757 679.556C534.411 680.751 534.419 682.02 534.781 683.211C535.143 684.401 535.842 685.46 536.795 686.26C537.747 687.06 538.912 687.566 540.146 687.717C580.036 692.02 660.634 697.962 682.457 678.769C710.496 654.077 630.615 677.403 624.399 671.939C618.184 666.474 640.109 653.906 622.896 654.214C610.841 654.419 592.16 675.798 572.796 672.963C557.086 670.675 578.021 659.302 563.438 659.302C550.938 659.132 545.167 668.967 536.731 676.481Z" fill="#F5F5F5"/>
<path d="M936.718 405.383C1015.94 405.383 1080.16 341.164 1080.16 261.945C1080.16 182.726 1015.94 118.507 936.718 118.507C857.5 118.507 793.28 182.726 793.28 261.945C793.28 341.164 857.5 405.383 936.718 405.383Z" fill="#F0F0F0"/>
<path d="M912.504 305.215C911.031 306.125 909.878 307.47 909.205 309.065C908.531 310.66 908.371 312.424 908.747 314.114C909.122 315.804 910.015 317.335 911.3 318.494C912.586 319.654 914.2 320.384 915.92 320.584C1003.01 330.829 1218.61 350.125 1274.31 301.083C1341.52 241.932 1150.17 297.873 1135.38 284.451C1120.59 271.029 1172.95 241.215 1131.96 241.966C1102.83 242.478 1057.85 293.706 1011.68 286.876C974.114 281.343 1024.22 254.022 989.278 254.022C953.248 254.056 940.475 287.491 912.504 305.215Z" fill="#FAFAFA"/>
<path d="M1133.64 88.7949C1132.47 89.7675 1131.61 91.0618 1131.18 92.5168C1130.74 93.9719 1130.74 95.5236 1131.17 96.9791C1131.61 98.4346 1132.47 99.7297 1133.63 100.703C1134.8 101.677 1136.23 102.286 1137.74 102.456C1191.42 108.364 1304.53 117.107 1334.83 90.4683C1373.21 56.658 1263.93 88.6241 1255.46 80.94C1246.99 73.2558 1276.97 56.2481 1253.44 56.6921C1236.91 56.9653 1211.23 86.2335 1184.87 82.3402C1163.38 79.1982 1192.04 63.5908 1172.06 63.5908C1153.96 63.5225 1146.14 78.3103 1133.64 88.7949Z" fill="#F5F5F5"/>
<path d="M837.336 1259.21C1203.04 1259.21 1499.51 1241.91 1499.51 1220.55C1499.51 1199.2 1203.04 1181.89 837.336 1181.89C471.629 1181.89 175.165 1199.2 175.165 1220.55C175.165 1241.91 471.629 1259.21 837.336 1259.21Z" fill="#F5F5F5"/>
<path d="M478.536 1148.94H366.757V1204.81H478.536V1148.94Z" fill="#FFC727"/>
<path opacity="0.3" d="M478.536 1148.94H366.757V1204.81H478.536V1148.94Z" fill="white"/>
<path opacity="0.2" d="M478.502 1204.81V1148.94H450.566V1204.81H478.502Z" fill="black"/>
<path d="M702.026 1037.19H590.281V1204.84H702.026V1037.19Z" fill="#FFC727"/>
<path opacity="0.4" d="M702.026 1037.19H590.281V1204.84H702.026V1037.19Z" fill="white"/>
<path opacity="0.2" d="M702.026 1204.84V1037.19H674.09V1204.84H702.026Z" fill="black"/>
<path d="M925.585 925.414H813.805V1204.81H925.585V925.414Z" fill="#FFC727"/>
<path opacity="0.3" d="M925.585 925.414H813.805V1204.81H925.585V925.414Z" fill="white"/>
<path opacity="0.2" d="M925.55 1204.84V925.448H897.614V1204.84H925.55Z" fill="black"/>
<path d="M1149.07 757.762H1037.33V1204.81H1149.07V757.762Z" fill="#FFC727"/>
<path opacity="0.2" d="M1149.07 757.762H1037.33V1204.81H1149.07V757.762Z" fill="white"/>
<path opacity="0.2" d="M1149.11 1204.81V757.762H1121.17V1204.81H1149.11Z" fill="black"/>
<path d="M1372.63 534.238H1260.85V1204.81H1372.63V534.238Z" fill="#FFC727"/>
<path opacity="0.2" d="M1372.6 1204.84V534.272H1344.66V1204.84H1372.6Z" fill="black"/>
<path d="M514.293 1065.91H368.465L315.871 1043.58H456.816V931.8H680.34V820.055H903.864V652.404H1127.39V428.88H1315.94V234.111H1373.42V451.249H1184.87V674.739H961.342V842.391H737.818V954.17H514.293V1065.91Z" fill="#FFC727"/>
<g opacity="0.4">
<path d="M514.293 1065.91H368.465L315.871 1043.58H456.816V931.8H680.34V820.055H903.864V652.404H1127.39V428.88H1315.94V234.111H1373.42V451.249H1184.87V674.739H961.342V842.391H737.818V954.17H514.293V1065.91Z" fill="white"/>
</g>
<path d="M1315.94 428.88V234.111H1373.42V451.249L1315.94 428.88Z" fill="#FFC727"/>
<path d="M1127.39 652.404V428.88L1184.87 451.249V674.739L1127.39 652.404Z" fill="#FFC727"/>
<path d="M903.864 820.055V652.404L961.342 674.739V842.391L903.864 820.055Z" fill="#FFC727"/>
<path d="M680.34 931.8V820.055L737.818 842.391V954.17L680.34 931.8Z" fill="#FFC727"/>
<path d="M456.816 1043.58V931.8L514.293 954.17V1065.91L456.816 1043.58Z" fill="#FFC727"/>
<path d="M1277.52 250.026L1344.66 169.291L1411.81 298.897L1277.52 250.026Z" fill="#FFC727"/>
<path d="M665.211 367.44C659.981 377.909 655.761 388.853 652.609 400.124L652.404 400.943C651.926 402.685 651.003 406.578 650.969 406.749C650.559 408.525 650.218 410.164 649.876 412.111C649.876 412.111 649.193 416.141 648.954 418.053C648.938 418.269 648.938 418.486 648.954 418.702C648.442 422.596 648.101 430.826 648.101 430.963C648.101 432.978 648.101 434.959 648.101 436.939C648.101 436.939 648.442 441.311 648.715 443.326V443.906C648.699 443.713 648.699 443.519 648.715 443.326C653.906 475.872 658.756 480.107 662.752 492.197C674.432 527.749 683.482 640.45 683.482 640.45C615.929 658.653 534.614 732.661 534.614 732.661L549.197 766.403C549.197 766.403 724.464 683.516 737.032 666.679C751.786 646.7 743.316 540.829 747.961 499.13C749.668 483.693 751.615 470.272 753.596 458.148L775.555 424.269L665.211 367.44Z" fill="#263238"/>
<path opacity="0.2" d="M697.86 456.508L684.78 442.54C684.78 442.54 660.463 462.758 746.253 537.107C746.253 522.251 746.731 508.966 747.824 499.232C747.824 497.935 748.097 496.774 748.268 495.544L697.86 456.508Z" fill="black"/>
<path d="M537.107 738.74L501.555 756.84L512.518 774.77L545.611 760.085L537.107 738.74Z" fill="#FFC3BD"/>
<path d="M514.054 779.278C513.99 779.173 513.963 779.05 513.978 778.928C513.992 778.806 514.047 778.693 514.134 778.606C514.221 778.519 514.334 778.464 514.456 778.45C514.578 778.436 514.701 778.463 514.806 778.527C515.216 778.697 523.993 782.898 525.393 786.86C525.685 787.583 525.685 788.391 525.393 789.114C525.249 789.543 524.974 789.916 524.606 790.18C524.238 790.443 523.796 790.584 523.344 790.582C521.704 790.582 519.484 788.26 517.777 785.767C516.351 783.715 515.106 781.544 514.054 779.278ZM515.728 780.371C517.845 784.401 521.363 789.421 523.309 789.421C523.549 789.421 523.924 789.421 524.266 788.636C524.367 788.416 524.419 788.177 524.419 787.935C524.419 787.694 524.367 787.455 524.266 787.235C524.129 786.889 523.958 786.557 523.753 786.245C521.456 783.802 518.723 781.81 515.694 780.371H515.728Z" fill="#FFC727"/>
<path d="M513.884 779.005C513.88 778.899 513.906 778.794 513.961 778.703C514.016 778.612 514.095 778.539 514.191 778.492C517.17 776.743 520.62 775.967 524.061 776.272C524.61 776.421 525.123 776.679 525.569 777.031C526.015 777.383 526.385 777.822 526.656 778.322C527.442 779.722 527.066 780.576 526.656 781.02C524.71 783 517.06 781.19 514.362 779.517C514.289 779.478 514.229 779.419 514.191 779.346C514.119 779.313 514.055 779.266 514.002 779.207C513.949 779.148 513.909 779.08 513.884 779.005ZM525.563 778.629C525.14 778.033 524.525 777.599 523.822 777.4C521.079 777.123 518.317 777.683 515.898 779.005C519.075 780.473 524.607 781.259 525.871 780.2C525.871 780.2 526.281 779.79 525.871 778.902L525.666 778.629H525.563Z" fill="#FFC727"/>
<path d="M515.42 775.248L500.359 753.459C500.079 753.064 499.674 752.775 499.209 752.638C498.744 752.502 498.247 752.526 497.798 752.708L477.307 761.041C476.867 761.198 476.464 761.445 476.123 761.764C475.782 762.084 475.51 762.47 475.324 762.899C475.138 763.328 475.043 763.791 475.043 764.258C475.043 764.726 475.14 765.188 475.326 765.617C475.419 765.855 475.533 766.083 475.668 766.3C481.234 774.053 486.494 780.746 493.256 790.514C501.213 802.057 497.832 800.076 506.917 813.771C512.449 822.002 522.763 817.187 520.851 813.293C511.869 796.217 515.523 791.095 516.957 781.054C517.171 778.996 516.625 776.931 515.42 775.248Z" fill="#263238"/>
<path opacity="0.2" d="M531.506 741.608L518.187 748.37L527.818 767.974L538.814 763.124L531.506 741.608Z" fill="black"/>
<path d="M534.545 721.561L519.484 730.304L538.336 773.506L555.822 768.657L534.545 721.561Z" fill="#FFC727"/>
<path d="M851.714 615.69C851.714 615.69 697.791 485.913 684.677 462.826C671.563 439.74 706.637 408.183 706.637 408.183L745.672 413.648C745.672 413.648 910.182 562.926 903.454 592.774L851.714 615.69Z" fill="#263238"/>
<path d="M903.454 592.774C899.117 623.101 834.126 768.93 834.126 768.93C834.126 768.93 820.704 768.144 796.115 752.776C796.115 752.776 821.797 637.513 847.889 592.774H903.454Z" fill="#263238"/>
<path d="M807.146 759.675L795.534 797.822L816.06 802.365L828.423 768.349L807.146 759.675Z" fill="#FFC3BD"/>
<path d="M820.363 804.414C820.257 804.365 820.166 804.288 820.1 804.192C820.034 804.096 819.995 803.984 819.987 803.867C819.981 803.748 820.015 803.629 820.082 803.531C820.15 803.432 820.249 803.358 820.363 803.321C820.772 803.15 829.891 799.735 833.716 801.511C834.427 801.823 834.99 802.398 835.287 803.116C835.492 803.513 835.566 803.965 835.498 804.406C835.431 804.848 835.225 805.257 834.911 805.575C832.633 806.706 830.016 806.95 827.569 806.258C825.12 805.845 822.709 805.228 820.363 804.414ZM822.343 803.936C826.681 805.199 832.589 806.156 834.092 804.789C834.297 804.789 834.502 804.311 834.092 803.526C834.032 803.322 833.932 803.131 833.797 802.967C833.662 802.803 833.495 802.667 833.306 802.57C832.965 802.431 832.61 802.328 832.248 802.262C828.87 802.185 825.508 802.753 822.343 803.936Z" fill="#FFC727"/>
<path d="M820.089 804.311C820.034 804.231 820.004 804.136 820.004 804.038C820.004 803.94 820.034 803.845 820.089 803.765C820.859 800.389 822.69 797.348 825.315 795.09C825.823 794.785 826.388 794.588 826.976 794.512C827.564 794.435 828.161 794.481 828.73 794.646C830.267 795.056 830.608 795.944 830.574 796.593C830.574 799.359 824.051 803.628 820.977 804.414H820.738C820.638 804.483 820.514 804.511 820.393 804.492C820.273 804.472 820.164 804.408 820.089 804.311ZM827.876 795.671C827.17 795.535 826.439 795.669 825.827 796.046C823.712 797.828 822.188 800.21 821.456 802.877C824.7 801.613 829.14 798.164 829.242 796.525C829.242 796.354 829.242 795.944 828.218 795.671H827.876Z" fill="#FFC727"/>
<path d="M818.484 800.657L792.324 796.422C791.847 796.34 791.356 796.425 790.934 796.661C790.511 796.897 790.182 797.271 790.002 797.72L781.839 818.211C781.647 818.639 781.544 819.103 781.539 819.573C781.533 820.042 781.625 820.508 781.808 820.941C781.99 821.373 782.26 821.764 782.601 822.087C782.941 822.411 783.345 822.661 783.786 822.822L784.503 823.061C793.963 824.427 802.399 825.246 814.147 827.193C827.979 829.413 824.188 830.608 840.444 833.374C850.211 835.116 853.832 824.256 849.767 823.129C831.121 817.665 830.062 811.586 823.846 803.594C822.481 801.989 820.572 800.944 818.484 800.657Z" fill="#263238"/>
<path opacity="0.2" d="M805.336 765.685L800.964 779.995L821.763 786.655L825.895 775.35L805.336 765.685Z" fill="black"/>
<path d="M793.007 749.6L788.875 766.505L833.067 782.898L841.673 766.949L793.007 749.6Z" fill="#FFC727"/>
<path d="M616.476 315.017L619.037 290.291L640.621 294.799L633.279 319.867C633.279 319.867 640.553 331.444 640.109 341.758C639.665 352.072 633.654 350.637 633.654 350.637C633.654 350.637 634.269 361.532 625.014 358.322C615.759 355.111 603.805 350.364 605.82 341.246C608.441 332.153 612.012 323.361 616.476 315.017Z" fill="#FFC3BD"/>
<path d="M773.677 211.025C766.266 183.088 680.955 209.727 680.955 209.727C680.955 209.727 639.323 223.149 628.395 233.258C617.466 243.366 611.319 302.791 611.319 302.791L641.202 309.314L659.746 258.086C743.043 243.845 780.883 238.107 773.677 211.025Z" fill="#FFC727"/>
<path d="M642.056 299.751C641.589 300.215 640.964 300.484 640.307 300.504C639.649 300.525 639.009 300.295 638.514 299.861C638.02 299.428 637.709 298.822 637.643 298.168C637.578 297.514 637.763 296.859 638.162 296.336C638.616 295.821 639.255 295.507 639.94 295.462C640.625 295.417 641.3 295.646 641.817 296.097C642.075 296.319 642.287 296.591 642.44 296.896C642.592 297.201 642.682 297.533 642.705 297.874C642.727 298.214 642.681 298.556 642.57 298.878C642.458 299.2 642.283 299.497 642.056 299.751Z" fill="white"/>
<path opacity="0.1" d="M752.127 227.896L752.332 201.53C752.332 201.53 734.402 198.457 707.115 249.855C719.376 247.533 729.963 245.313 738.876 243.025L752.127 227.896Z" fill="black"/>
<path d="M861.994 160.309L865.409 176.873C863.466 177.276 861.456 177.217 859.54 176.701C857.624 176.185 855.856 175.226 854.378 173.901L861.994 160.309Z" fill="#BA4D3C"/>
<path d="M865.648 153.684C865.648 155.391 864.487 156.723 863.36 156.655C862.233 156.586 861.379 155.015 861.55 153.24C861.721 151.464 862.711 150.2 863.838 150.302C864.965 150.405 865.785 152.01 865.648 153.684Z" fill="#263238"/>
<path d="M786.142 206.482C786.142 206.482 800.964 207.541 805.472 180.732C805.472 180.732 820.021 176.975 827.33 186.401C834.638 195.827 814.796 211.434 824.222 221.134C833.648 230.833 786.142 206.482 786.142 206.482Z" fill="#FFC3BD"/>
<path opacity="0.2" d="M817.357 195.827C818.981 199.725 821.08 203.407 823.607 206.79C825.007 203.375 826.783 199.959 827.91 196.817L817.357 195.827Z" fill="black"/>
<path d="M799.359 141.286C796.456 164.168 794.715 173.799 803.901 187.596C819.099 202.76 846.523 206.96 856.256 185.376C864.999 165.978 868.312 131.929 847.889 118.541C843.391 115.619 838.222 113.891 832.87 113.521C827.519 113.152 822.161 114.152 817.304 116.429C812.447 118.705 808.25 122.183 805.11 126.532C801.97 130.881 799.991 135.959 799.359 141.286Z" fill="#FFC3BD"/>
<path d="M858.34 144.531C858.448 144.63 858.58 144.701 858.723 144.737C858.867 144.773 859.016 144.772 859.159 144.736C860.244 144.412 861.391 144.354 862.503 144.568C863.615 144.782 864.659 145.261 865.546 145.965C865.718 146.136 865.951 146.232 866.195 146.232C866.438 146.232 866.671 146.136 866.843 145.965C866.927 145.883 866.993 145.784 867.039 145.676C867.084 145.567 867.107 145.451 867.107 145.333C867.107 145.216 867.084 145.099 867.039 144.991C866.993 144.883 866.927 144.784 866.843 144.702C865.733 143.795 864.421 143.17 863.018 142.879C861.615 142.587 860.163 142.639 858.784 143.028C858.548 143.092 858.348 143.247 858.227 143.458C858.105 143.669 858.072 143.92 858.135 144.155C858.171 144.295 858.242 144.424 858.34 144.531Z" fill="#263238"/>
<path d="M844.44 162.563L852.568 162.119C851.474 158.851 851.254 155.353 851.931 151.974C852.608 148.595 854.158 145.452 856.427 142.857C864.282 132.612 883.749 127.352 867.936 109.867C863.616 104.819 858.177 100.851 852.052 98.2777C845.927 95.7044 839.286 94.5973 832.657 95.0447L845.669 104.368C845.669 104.368 818.826 84.6625 802.979 106.076C806.89 104.83 811.101 104.902 814.967 106.281C814.967 106.281 743.657 130.392 803.901 187.596C803.901 187.596 806.19 182.952 815.82 190.499C822.672 185.782 828.388 179.599 832.555 172.399C838.327 161.504 842.425 151.259 844.44 162.563Z" fill="#263238"/>
<path d="M844.098 154.879C845.536 156.717 846.594 158.824 847.21 161.076C847.825 163.327 847.987 165.679 847.684 167.993C846.83 174.209 840.683 174.824 836.107 171.135C831.53 167.447 827.466 160.446 830.642 155.186C831.345 154.049 832.321 153.105 833.482 152.44C834.642 151.775 835.95 151.411 837.287 151.381C838.624 151.35 839.947 151.654 841.137 152.265C842.326 152.876 843.344 153.775 844.098 154.879Z" fill="#FFC3BD"/>
<path d="M875.586 116.116C875.586 116.116 877.67 128.548 858.135 135.925C858.135 135.925 885.32 138.691 875.586 116.116Z" fill="#263238"/>
<path d="M784.059 209.932L791.812 200.028C791.812 200.028 828.969 203.443 831.223 224.515L784.059 209.932Z" fill="#FFC727"/>
<path opacity="0.5" d="M784.059 209.932L791.812 200.028C791.812 200.028 828.969 203.443 831.223 224.515L784.059 209.932Z" fill="white"/>
<path d="M702.197 295.55C712.443 270.073 728.938 202.384 755.201 199.31C781.464 196.237 856.973 226.393 865.887 253.236C874.801 280.08 771.389 432.773 771.389 432.773L661.659 372.256C661.659 372.256 694.103 315.7 702.197 295.55Z" fill="#FFC727"/>
<path opacity="0.1" d="M831.155 244.391C831.155 244.391 811.244 282.368 835.253 330.18C844.276 314.586 852.395 298.485 859.569 281.958L851.134 262.013L831.155 244.391Z" fill="black"/>
<path d="M721.254 298.112C735.598 300.263 751.342 296.029 764.115 289.779C778.732 282.675 789.592 271.952 800.315 259.998C809.878 249.309 822.719 237.151 837.644 235.17C871.522 230.628 878.626 284.69 875.211 308.255C871.01 336.26 855.266 361.908 838.019 383.833C827.776 397.053 816.344 409.308 803.867 420.444C799.837 423.859 806.155 429.46 810.151 425.977C842.527 397.562 873.947 357.365 882.519 314.471C887.71 288.583 881.187 251.665 858.1 234.897C837.234 219.733 814.181 233.736 798.915 249.104C778.424 269.595 755.064 294.697 722.757 289.915C717.463 289.13 715.926 297.326 721.151 298.112H721.254Z" fill="#FFC727"/>
<g opacity="0.3">
<path d="M721.254 298.112C735.598 300.263 751.342 296.029 764.115 289.779C778.732 282.675 789.592 271.952 800.315 259.998C809.878 249.309 822.719 237.151 837.644 235.17C871.522 230.628 878.626 284.69 875.211 308.255C871.01 336.26 855.266 361.908 838.019 383.833C827.776 397.053 816.344 409.308 803.867 420.444C799.837 423.859 806.155 429.46 810.151 425.977C842.527 397.562 873.947 357.365 882.519 314.471C887.71 288.583 881.187 251.665 858.1 234.897C837.234 219.733 814.181 233.736 798.915 249.104C778.424 269.595 755.064 294.697 722.757 289.915C717.463 289.13 715.926 297.326 721.151 298.112H721.254Z" fill="black"/>
</g>
<path d="M965.03 343.671L941.978 351.491L938.836 334.108L962.469 326.697C962.469 326.697 967.148 314.505 976.539 310.782C985.931 307.06 989.756 313.89 989.756 313.89C989.756 313.89 999.182 308.87 1000 318.432C1000.82 327.995 1000.62 343.261 991.771 345.139C982.926 347.017 972.783 343.773 965.03 343.671Z" fill="#FFC3BD"/>
<path d="M952.838 324.989L904.206 332.639C872.274 257.813 858.374 224.719 834.126 237.697C808.649 251.358 853.831 323.897 853.831 323.897C853.831 323.897 875.279 363.308 886.651 373.007C887.342 373.645 888.125 374.175 888.974 374.578C903.42 378.471 957.926 352.243 957.926 352.243L952.838 324.989Z" fill="#FFC727"/>
<path d="M952.838 351.56C952.622 351.843 952.35 352.078 952.04 352.252C951.729 352.425 951.386 352.533 951.032 352.568C950.678 352.604 950.321 352.566 949.982 352.457C949.643 352.348 949.33 352.171 949.063 351.937C948.795 351.702 948.579 351.415 948.427 351.093C948.275 350.771 948.191 350.422 948.18 350.066C948.169 349.711 948.231 349.356 948.363 349.026C948.494 348.695 948.692 348.395 948.944 348.144C949.403 347.634 950.045 347.327 950.729 347.288C951.414 347.25 952.086 347.484 952.599 347.94C952.853 348.161 953.06 348.431 953.21 348.733C953.359 349.035 953.448 349.364 953.47 349.7C953.492 350.036 953.448 350.374 953.339 350.693C953.231 351.012 953.06 351.306 952.838 351.56Z" fill="white"/>
<path d="M728.402 294.832L810.682 413.615C811.509 414.809 812.093 416.155 812.4 417.576C812.708 418.996 812.732 420.463 812.473 421.892C812.213 423.322 811.675 424.687 810.888 425.908C810.101 427.13 809.081 428.184 807.886 429.012L746.937 471.231C744.876 472.659 742.554 473.666 740.104 474.196C737.653 474.727 735.123 474.769 732.656 474.321C730.189 473.873 727.835 472.944 725.727 471.586C723.62 470.229 721.8 468.469 720.373 466.408L647.311 360.933C645.883 358.872 644.875 356.55 644.345 354.1C643.815 351.649 643.772 349.118 644.22 346.652C644.668 344.185 645.597 341.831 646.955 339.723C648.313 337.615 650.072 335.796 652.133 334.368L713.083 292.149C714.277 291.322 715.623 290.738 717.043 290.43C718.464 290.123 719.931 290.099 721.36 290.358C722.79 290.618 724.155 291.156 725.376 291.943C726.598 292.73 727.652 293.75 728.48 294.945L728.402 294.832Z" fill="#FFC727"/>
<path opacity="0.3" d="M728.402 294.832L810.682 413.615C811.509 414.809 812.093 416.155 812.4 417.576C812.708 418.996 812.732 420.463 812.473 421.892C812.213 423.322 811.675 424.687 810.888 425.908C810.101 427.13 809.081 428.184 807.886 429.012L746.937 471.231C744.876 472.659 742.554 473.666 740.104 474.196C737.653 474.727 735.123 474.769 732.656 474.321C730.189 473.873 727.835 472.944 725.727 471.586C723.62 470.229 721.8 468.469 720.373 466.408L647.311 360.933C645.883 358.872 644.875 356.55 644.345 354.1C643.815 351.649 643.772 349.118 644.22 346.652C644.668 344.185 645.597 341.831 646.955 339.723C648.313 337.615 650.072 335.796 652.133 334.368L713.083 292.149C714.277 291.322 715.623 290.738 717.043 290.43C718.464 290.123 719.931 290.099 721.36 290.358C722.79 290.618 724.155 291.156 725.376 291.943C726.598 292.73 727.652 293.75 728.48 294.945L728.402 294.832Z" fill="white"/>
<path opacity="0.1" d="M804.277 421.093L718.897 297.941C718.265 297.03 717.46 296.253 716.528 295.653C715.595 295.053 714.553 294.644 713.462 294.447C712.371 294.25 711.252 294.271 710.169 294.507C709.085 294.743 708.059 295.191 707.149 295.824L704.588 297.6C699.438 301.211 695.92 306.707 694.795 312.895C693.67 319.083 695.029 325.466 698.577 330.659L766.437 428.572C770.049 433.721 775.544 437.24 781.732 438.365C787.92 439.49 794.303 438.131 799.496 434.583L802.023 432.841C803.878 431.58 805.156 429.635 805.579 427.433C806.001 425.231 805.533 422.951 804.277 421.093Z" fill="black"/>
<path d="M812.132 415.799L726.752 292.648C726.12 291.737 725.315 290.959 724.383 290.359C723.45 289.76 722.408 289.35 721.317 289.153C720.226 288.957 719.107 288.977 718.024 289.213C716.94 289.45 715.914 289.897 715.004 290.53L712.477 292.306C707.328 295.918 703.809 301.413 702.684 307.601C701.559 313.79 702.918 320.172 706.466 325.365L774.292 423.279C777.903 428.428 783.399 431.946 789.587 433.071C795.775 434.197 802.158 432.838 807.351 429.289L809.912 427.548C810.831 426.924 811.618 426.124 812.227 425.195C812.837 424.266 813.257 423.226 813.463 422.135C813.669 421.043 813.658 419.921 813.429 418.834C813.201 417.747 812.76 416.716 812.132 415.799Z" fill="#FFC727"/>
<path d="M812.132 415.799L726.752 292.648C726.12 291.737 725.315 290.959 724.383 290.359C723.45 289.76 722.408 289.35 721.317 289.153C720.226 288.957 719.107 288.977 718.024 289.213C716.94 289.45 715.914 289.897 715.004 290.53L712.477 292.306C707.328 295.918 703.809 301.413 702.684 307.601C701.559 313.79 702.918 320.172 706.466 325.365L774.292 423.279C777.903 428.428 783.399 431.946 789.587 433.071C795.775 434.197 802.158 432.838 807.351 429.289L809.912 427.548C810.831 426.924 811.618 426.124 812.227 425.195C812.837 424.266 813.257 423.226 813.463 422.135C813.669 421.043 813.658 419.921 813.429 418.834C813.201 417.747 812.76 416.716 812.132 415.799Z" fill="#FFC727"/>
<path opacity="0.5" d="M812.132 415.799L726.752 292.648C726.12 291.737 725.315 290.959 724.383 290.359C723.45 289.76 722.408 289.35 721.317 289.153C720.226 288.957 719.107 288.977 718.024 289.213C716.94 289.45 715.914 289.897 715.004 290.53L712.477 292.306C707.328 295.918 703.809 301.413 702.684 307.601C701.559 313.79 702.918 320.172 706.466 325.365L774.292 423.279C777.903 428.428 783.399 431.946 789.587 433.071C795.775 434.197 802.158 432.838 807.351 429.289L809.912 427.548C810.831 426.924 811.618 426.124 812.227 425.195C812.837 424.266 813.257 423.226 813.463 422.135C813.669 421.043 813.658 419.921 813.429 418.834C813.201 417.747 812.76 416.716 812.132 415.799Z" fill="white"/>
<path d="M730.092 334.221L728.594 332.059C726.5 329.035 722.351 328.282 719.328 330.376L702.736 341.87C699.712 343.964 698.959 348.113 701.053 351.136L702.551 353.298C704.645 356.321 708.794 357.075 711.817 354.98L728.409 343.487C731.433 341.393 732.186 337.244 730.092 334.221Z" fill="#FFC727"/>
<path d="M775.998 400.548L774.5 398.386C772.405 395.363 768.256 394.61 765.233 396.705L748.643 408.201C745.62 410.296 744.868 414.445 746.962 417.468L748.46 419.63C750.555 422.653 754.704 423.405 757.727 421.31L774.317 409.814C777.34 407.72 778.093 403.571 775.998 400.548Z" fill="#FFC727"/>
<path opacity="0.3" d="M730.092 334.221L728.594 332.059C726.5 329.035 722.351 328.282 719.328 330.376L702.736 341.87C699.712 343.964 698.959 348.113 701.053 351.136L702.551 353.298C704.645 356.321 708.794 357.075 711.817 354.98L728.409 343.487C731.433 341.393 732.186 337.244 730.092 334.221Z" fill="black"/>
<path opacity="0.3" d="M775.998 400.548L774.5 398.386C772.405 395.363 768.256 394.61 765.233 396.705L748.643 408.201C745.62 410.296 744.868 414.445 746.962 417.468L748.46 419.63C750.555 422.653 754.704 423.405 757.727 421.31L774.317 409.814C777.34 407.72 778.093 403.571 775.998 400.548Z" fill="black"/>
<path opacity="0.2" d="M651.14 366.484C651.14 366.484 679.623 413.238 704.041 399.577L683.755 413.648L651.14 366.484Z" fill="black"/>
<path d="M757.899 340.973C764.729 340.016 768.144 336.26 773.848 333.63C777.673 331.82 773.096 330.215 776.512 333.391C777.66 334.715 778.646 336.171 779.449 337.728C781.737 341.348 783.684 345.207 786.04 348.793C788.089 351.833 793.417 355.111 794.749 358.253C796.9 363.376 785.801 370.548 782.591 373.178C778.766 376.32 783.171 382.774 787.065 379.598C792.597 375.022 803.628 367.713 803.253 359.107C803.013 353.848 798.403 351.423 795.227 347.905C789.25 341.314 786.86 329.566 778.936 324.819C777.8 324.04 776.455 323.624 775.077 323.624C773.7 323.624 772.355 324.04 771.218 324.819C768.144 326.492 766.676 329.873 763.124 331.444C761.267 332.243 759.316 332.805 757.318 333.118C752.332 333.801 752.913 341.587 757.899 340.904V340.973Z" fill="#FFC727"/>
<g opacity="0.3">
<path d="M757.899 340.973C764.729 340.016 768.144 336.26 773.848 333.63C777.673 331.82 773.096 330.215 776.512 333.391C777.66 334.715 778.646 336.171 779.449 337.728C781.737 341.348 783.684 345.207 786.04 348.793C788.089 351.833 793.417 355.111 794.749 358.253C796.9 363.376 785.801 370.548 782.591 373.178C778.766 376.32 783.171 382.774 787.065 379.598C792.597 375.022 803.628 367.713 803.253 359.107C803.013 353.848 798.403 351.423 795.227 347.905C789.25 341.314 786.86 329.566 778.936 324.819C777.8 324.04 776.455 323.624 775.077 323.624C773.7 323.624 772.355 324.04 771.218 324.819C768.144 326.492 766.676 329.873 763.124 331.444C761.267 332.243 759.316 332.805 757.318 333.118C752.332 333.801 752.913 341.587 757.899 340.904V340.973Z" fill="black"/>
</g>
</svg>
