<svg width="16" height="16" viewBox="0 0 16 16" fill="none" xmlns="http://www.w3.org/2000/svg">
<path fill-rule="evenodd" clip-rule="evenodd" d="M8 1.33334C8.87548 1.33334 9.74239 1.50577 10.5512 1.8408C11.3601 2.17583 12.095 2.66689 12.7141 3.28595C13.3331 3.90501 13.8242 4.63994 14.1592 5.44877C14.4942 6.25761 14.6667 7.12452 14.6667 8C14.6667 11.6819 11.6819 14.6667 8 14.6667C4.31813 14.6667 1.33334 11.6819 1.33334 8C1.33334 4.31813 4.31813 1.33334 8 1.33334ZM8.66669 8.66669H7.33334C5.68287 8.66669 4.26591 9.66628 3.65475 11.0932C4.62175 12.4492 6.20763 13.3333 8 13.3333C9.79237 13.3333 11.3783 12.4492 12.3453 11.0931C11.7341 9.66628 10.3172 8.66669 8.66669 8.66669ZM8 3.33334C6.89544 3.33334 6 4.22878 6 5.33334C6 6.43791 6.89544 7.33334 8 7.33334C9.10456 7.33334 10 6.43791 10 5.33334C10 4.22878 9.10459 3.33334 8 3.33334Z" fill="white"/>
</svg>
