<svg width="55" height="57" viewBox="0 0 55 57" fill="none" xmlns="http://www.w3.org/2000/svg">
<path fill-rule="evenodd" clip-rule="evenodd" d="M36.9531 28.5C36.9531 28.0276 36.772 27.5745 36.4497 27.2405C36.1274 26.9064 35.6902 26.7188 35.2344 26.7188H10.0879L14.5819 22.7288C14.7534 22.5766 14.8943 22.3908 14.9966 22.1822C15.0989 21.9735 15.1605 21.746 15.178 21.5127C15.1954 21.2794 15.1683 21.0448 15.0983 20.8223C15.0283 20.5998 14.9166 20.3938 14.7698 20.216C14.6229 20.0382 14.4437 19.8922 14.2424 19.7862C14.041 19.6802 13.8215 19.6163 13.5964 19.5982C13.3713 19.5801 13.1449 19.6082 12.9302 19.6808C12.7155 19.7534 12.5167 19.8691 12.3452 20.0213L4.32435 27.1463C4.13567 27.3135 3.98418 27.5211 3.88031 27.7548C3.77644 27.9885 3.72266 28.2427 3.72266 28.5C3.72266 28.7573 3.77644 29.0115 3.88031 29.2452C3.98418 29.4789 4.13567 29.6865 4.32435 29.8538L12.3452 36.9788C12.6916 37.2861 13.1417 37.4383 13.5964 37.4018C14.0511 37.3653 14.4732 37.143 14.7698 36.784C15.0664 36.425 15.2132 35.9585 15.178 35.4873C15.1427 35.0161 14.9283 34.5786 14.5819 34.2713L10.0902 30.2813H35.2344C35.6902 30.2813 36.1274 30.0936 36.4497 29.7595C36.772 29.4255 36.9531 28.9724 36.9531 28.5Z" fill="white"/>
<path d="M21.4844 19C21.4844 20.6673 21.4844 21.5009 21.8717 22.1017C22.0385 22.3601 22.2526 22.582 22.5019 22.7549C23.0817 23.1563 23.886 23.1562 25.4948 23.1562H35.2344C36.6019 23.1562 37.9134 23.7193 38.8804 24.7214C39.8474 25.7235 40.3906 27.0827 40.3906 28.5C40.3906 29.9173 39.8474 31.2765 38.8804 32.2786C37.9134 33.2807 36.6019 33.8438 35.2344 33.8438H25.4948C23.886 33.8438 23.0817 33.8438 22.5019 34.2428C22.2524 34.4163 22.0382 34.639 21.8717 34.8983C21.4844 35.4991 21.4844 36.3327 21.4844 38C21.4844 44.7165 21.4844 48.0771 23.4987 50.1624C25.5108 52.25 28.7512 52.25 35.2321 52.25H37.5238C44.0092 52.25 47.2473 52.25 49.2617 50.1624C51.276 48.0771 51.276 44.7165 51.276 38V19C51.276 12.2835 51.276 8.92287 49.2617 6.83762C47.2473 4.75237 44.0069 4.75 37.526 4.75H35.2344C28.7512 4.75 25.5108 4.75 23.4987 6.83762C21.4844 8.92287 21.4844 12.2835 21.4844 19Z" fill="white"/>
</svg>
