<svg width="1259" height="1261" viewBox="0 0 1259 1261" fill="none" xmlns="http://www.w3.org/2000/svg">
<g opacity="0.3">
<path d="M332.201 337.88C367.366 302.716 367.366 245.702 332.201 210.538C297.037 175.373 240.023 175.373 204.859 210.538C169.694 245.702 169.694 302.716 204.859 337.88C240.023 373.045 297.037 373.045 332.201 337.88Z" fill="black"/>
<path d="M312.125 313.823C333.992 289.757 332.21 252.52 308.144 230.652C284.078 208.785 246.841 210.567 224.974 234.633C203.106 258.699 204.888 295.936 228.954 317.803C253.02 339.671 290.257 337.889 312.125 313.823Z" fill="white"/>
<path d="M268.549 305.378C285.762 305.378 299.716 291.424 299.716 274.211C299.716 256.998 285.762 243.044 268.549 243.044C251.336 243.044 237.382 256.998 237.382 274.211C237.382 291.424 251.336 305.378 268.549 305.378Z" fill="black"/>
</g>
<path d="M232.781 292.04L230.332 310.931L265.446 275.871L215.823 276.307L231.012 287.794L143.635 324.378L119.136 320.104L95.8902 329.849L111.188 338.451C111.013 338.75 110.91 339.087 110.887 339.433C110.865 339.779 110.923 340.126 111.058 340.445C111.192 340.765 111.4 341.049 111.663 341.274C111.927 341.5 112.24 341.661 112.576 341.745L107.976 358.73L131.249 348.985L144.86 328.761L232.781 292.04Z" fill="#263238"/>
<path opacity="0.3" d="M1109.17 63.498V50.7861H1096.92V63.498H1061.4V50.7861H1049.15V63.498H1013.76V50.7861H1001.48V63.498H966.098V50.7861H953.849V63.498H918.054V50.7861H905.805V63.498H861.681V322.745H1144.12V63.498H1109.17ZM906.295 303.691H881.28V278.702H906.295V303.691ZM906.295 268.304H881.28V243.289H906.295V268.304ZM906.295 232.918H881.28V207.603H906.295V232.918ZM906.295 197.368H881.28V172.08H906.295V197.368ZM942.77 303.691H917.755V278.702H942.77V303.691ZM942.77 268.304H917.755V243.289H942.77V268.304ZM942.77 232.918H917.755V207.603H942.77V232.918ZM942.77 197.368H917.755V172.08H942.77V197.368ZM979.246 303.691H954.23V278.702H979.246V303.691ZM979.246 268.304H954.23V243.289H979.246V268.304ZM979.246 232.918H954.23V207.603H979.246V232.918ZM979.246 197.368H954.23V172.08H979.246V197.368ZM1015.69 303.691H990.705V278.702H1015.69V303.691ZM1015.69 268.304H990.705V243.289H1015.69V268.304ZM1015.69 232.918H990.705V207.603H1015.69V232.918ZM1015.69 197.368H990.705V172.08H1015.69V197.368ZM1052.17 303.691H1027.15V278.702H1052.17V303.691ZM1052.17 268.304H1027.15V243.289H1052.17V268.304ZM1052.17 232.918H1027.15V207.603H1052.17V232.918ZM1052.17 197.368H1027.15V172.08H1052.17V197.368ZM1088.64 303.691H1063.63V278.702H1088.64V303.691ZM1088.64 268.304H1063.63V243.289H1088.64V268.304ZM1088.64 232.918H1063.63V207.603H1088.64V232.918ZM1088.64 197.368H1063.63V172.08H1088.64V197.368ZM1125.12 303.691H1100.1V278.702H1125.12V303.691ZM1125.12 268.304H1100.1V243.289H1125.12V268.304ZM1125.12 232.918H1100.1V207.603H1125.12V232.918ZM1125.12 197.368H1100.1V172.08H1125.12V197.368ZM1127.57 144.179H878.83V85.0837H1127.52L1127.57 144.179Z" fill="black"/>
<path d="M948.922 405.032C948.922 405.032 953.033 363.929 936.591 345.419C920.15 326.91 895.489 349.53 901.64 374.191C907.792 398.853 948.922 405.032 948.922 405.032Z" fill="#FFC727"/>
<path d="M901.586 588.143C901.586 588.143 908.092 524.176 882.532 495.268C856.972 466.36 818.482 501.692 828.091 540.127C837.7 578.562 901.586 588.143 901.586 588.143Z" fill="#FFC727"/>
<path d="M887.813 691.962C887.813 691.962 880.79 627.967 849.704 605.102C818.618 582.237 788.377 624.673 805.77 660.277C823.164 695.882 887.813 691.962 887.813 691.962Z" fill="#FFC727"/>
<path d="M953.033 745.532C915.196 752.827 881.28 807.567 881.28 807.567C881.28 807.567 937.952 838.898 968.956 814.263C999.96 789.629 990.896 738.264 953.033 745.532Z" fill="#FFC727"/>
<path d="M965.554 841.973C911.385 852.399 862.906 930.712 862.906 930.712C862.906 930.712 943.995 975.544 988.365 940.266C1032.73 904.989 1019.72 831.548 965.554 841.973Z" fill="#FFC727"/>
<path d="M877.088 808.438C878.803 808.438 879.81 808.438 879.81 808.438C879.81 808.438 879.456 805.389 878.612 800.272C882.94 776.018 887.323 745.504 892.522 709.029L894.699 693.84C909.453 700.836 951.862 717.985 977.095 697.869C1008.1 673.207 999.035 621.869 961.171 629.165C933.788 634.418 908.473 664.551 896.577 680.747C899.926 657.61 903.573 632.73 907.683 606.681C908.391 602.271 909.18 597.698 910.052 592.934C924.614 603.822 960.246 626.198 987.793 612.478C1023.18 594.812 1025.03 542.685 986.486 541.95C958.722 541.433 927.854 565.387 912.774 578.834C918.218 551.396 926.03 519.711 934.223 488.408C943.07 495.05 966.643 510.484 984.771 501.447C1007.53 490.096 1008.67 456.669 983.928 456.206C965.935 455.852 945.982 471.504 936.401 480.106C942.988 455.172 949.793 430.81 955.972 409.333C966.153 416.546 987.494 428.986 1004.18 420.656C1026.91 409.306 1028.08 375.879 1003.34 375.416C987.602 375.117 970.372 387.012 959.783 395.777C968.82 364.555 975.898 341.527 977.721 335.566C986.922 329.468 1014.69 310.414 1019.31 299.009C1020.64 295.747 1021.31 292.256 1021.29 288.735C1021.27 285.214 1020.55 281.731 1019.18 278.487C1017.81 275.243 1015.82 272.3 1013.31 269.827C1010.8 267.353 1007.84 265.397 1004.57 264.071C1001.31 262.745 997.821 262.074 994.3 262.097C990.779 262.12 987.297 262.837 984.053 264.205C980.809 265.574 977.866 267.568 975.392 270.075C972.919 272.581 970.963 275.549 969.637 278.811C965.2 289.699 971.134 320.594 973.693 332.599L972.06 332.081C971.815 332.816 962.587 362.65 950.692 403.998L949.957 404.733L950.365 405.086C943.968 427.407 936.755 453.022 929.868 479.18C930.249 466.768 929.514 440.146 917.156 426.264C900.824 407.754 876.053 430.374 882.232 455.036C887.676 477.084 921.157 484.325 928.18 485.632C918.953 520.827 910.297 556.595 904.607 586.347L903.328 587.653L904.226 588.416C903.083 594.404 902.076 600.175 901.232 605.619C895.38 642.693 890.344 677.426 886.043 708.076C881.933 736.794 878.367 761.809 874.91 782.96C869.793 762.463 859.857 734.861 841.62 721.442C810.561 698.549 780.292 741.013 797.686 776.617C810.997 803.838 851.936 807.948 870.446 808.356C869.738 812.004 869.058 815.488 868.35 818.809C865.628 832.011 861.109 868.377 856.727 908.282C850.629 878.884 836.312 829.697 806.179 807.567C761.755 774.902 718.447 835.577 743.327 886.506C764.205 929.269 832.746 932.182 854.195 932.018C848.316 987.738 843.089 1043.02 842.681 1047.27L849.105 1047.87C849.296 1045.94 867.479 853.814 874.665 820.252C875.482 816.495 876.271 812.711 877.088 808.438Z" fill="#FFC727"/>
<path d="M389.462 604.176C389.462 604.176 387.067 580.25 396.648 569.498C406.23 558.745 420.575 571.893 416.982 586.238C413.389 600.583 389.462 604.176 389.462 604.176Z" fill="#FFC727"/>
<path d="M417.063 710.799C417.063 710.799 413.334 673.507 428.251 656.739C443.168 639.971 465.543 660.468 459.936 682.843C454.328 705.218 417.063 710.799 417.063 710.799Z" fill="#FFC727"/>
<path d="M425.039 771.228C425.039 771.228 429.122 733.99 447.196 720.652C465.271 707.314 482.91 732.058 472.784 752.772C462.658 773.487 425.039 771.228 425.039 771.228Z" fill="#FFC727"/>
<path d="M387.121 802.422C409.17 806.669 428.904 838.544 428.904 838.544C428.904 838.544 395.886 856.781 377.839 842.436C359.792 828.091 365.018 798.176 387.121 802.422Z" fill="#FFC727"/>
<path d="M379.772 858.578C411.32 864.648 439.656 910.297 439.656 910.297C439.656 910.297 392.429 936.401 366.597 915.877C340.765 895.353 348.223 852.508 379.772 858.578Z" fill="#FFC727"/>
<path d="M431.3 839.034C430.292 839.034 429.721 839.034 429.721 839.034C429.721 839.034 429.939 837.264 430.429 834.352C427.897 820.224 425.366 802.449 422.262 781.218C421.854 778.359 421.446 775.392 421.01 772.371C412.409 776.454 387.747 786.444 373.021 774.712C354.974 760.367 360.254 730.479 382.303 734.725C398.254 737.801 412.98 755.304 419.922 764.668C417.962 751.057 415.838 736.685 413.443 721.523C413.026 718.965 412.563 716.297 412.055 713.521C403.589 719.781 382.847 732.901 366.815 724.899C346.154 714.609 345.038 684.286 367.577 683.85C383.746 683.551 401.684 697.46 410.476 705.327C407.264 689.349 402.773 670.893 398.009 652.656C392.837 656.548 379.118 665.531 368.557 660.277C355.328 653.663 354.647 634.2 369.047 633.928C379.527 633.71 391.15 642.829 396.73 647.838C392.892 633.329 388.918 619.147 385.324 606.626C379.39 610.818 366.978 618.059 357.26 613.213C344.031 606.599 343.351 587.136 357.75 586.864C366.896 586.701 376.941 593.642 383.065 598.732C377.784 580.549 373.674 567.157 372.613 563.672C367.168 560.134 351.081 549.028 348.386 542.386C347.024 538.589 347.182 534.412 348.829 530.73C350.476 527.047 353.483 524.144 357.222 522.629C360.96 521.113 365.14 521.102 368.886 522.598C372.633 524.093 375.655 526.98 377.322 530.654C380.044 537.024 376.451 554.989 374.953 561.957L375.933 561.658C375.933 562.094 381.377 579.46 388.346 603.523L388.781 603.959L388.536 604.176C392.266 617.16 396.458 632.077 400.486 647.293C400.241 640.08 400.704 624.564 407.89 616.48C417.444 605.592 431.817 618.875 428.224 633.248C425.012 646.068 405.549 650.288 401.466 651.05C406.91 671.547 411.864 692.37 415.076 709.737C415.336 709.977 415.581 710.231 415.811 710.499L415.294 710.935C415.947 714.419 416.546 717.767 417.036 720.924C420.466 742.537 423.351 762.735 425.883 780.592C428.278 797.305 430.347 811.868 432.361 824.144C435.328 812.194 441.126 796.134 451.742 788.322C469.816 774.984 487.455 799.7 477.329 820.442C469.571 836.284 445.726 838.68 434.974 838.925C435.383 841.048 435.791 843.089 436.199 844.995C437.833 852.698 440.391 873.849 442.95 897.095C446.489 880 454.845 851.337 472.375 838.408C498.235 819.353 523.441 854.74 508.959 884.383C496.819 909.262 456.914 910.95 444.42 910.868C447.85 943.315 450.898 975.489 451.143 977.966L447.387 978.32C447.387 977.177 436.689 865.329 432.525 845.784C432.18 843.697 431.771 841.447 431.3 839.034Z" fill="#FFC727"/>
<path d="M95.5908 899.191C95.5908 899.191 89.3029 885.336 92.8688 876.924C96.4346 868.513 107.704 873.522 108.466 882.859C109.228 892.195 95.5908 899.191 95.5908 899.191Z" fill="#FFC727"/>
<path d="M133.672 957.606C133.672 957.606 123.9 935.993 129.426 922.9C134.951 909.807 152.563 917.455 153.734 932.127C154.904 946.799 133.672 957.606 133.672 957.606Z" fill="#FFC727"/>
<path d="M150.767 992.366C150.767 992.366 145.676 969.174 153.842 957.524C162.009 945.874 177.579 957.143 175.619 971.624C173.659 986.105 150.767 992.366 150.767 992.366Z" fill="#FFC727"/>
<path d="M134.325 1018.63C148.398 1016.86 166.636 1031.84 166.636 1031.84C166.636 1031.84 150.549 1049.47 136.694 1044.52C122.838 1039.57 120.361 1020.57 134.325 1018.63Z" fill="#FFC727"/>
<path d="M141.321 1053.8C161.464 1051.08 187.596 1072.69 187.596 1072.69C187.596 1072.69 164.567 1097.93 144.914 1090.85C125.261 1083.77 121.151 1056.55 141.321 1053.8Z" fill="#FFC727"/>
<path d="M168.269 1031.64L167.316 1031.94C167.316 1031.94 167.071 1030.83 166.772 1028.98C162.417 1021.03 157.272 1010.88 151.175 998.736C150.331 997.102 149.487 995.415 148.616 993.7C144.288 997.892 131.494 1008.86 120.307 1004.83C106.561 999.852 103.675 980.852 117.748 978.946C127.956 977.558 140.341 985.071 146.411 989.345C142.519 981.641 138.245 973.393 133.781 964.846C133.019 963.404 132.202 961.906 131.331 960.328C127.52 965.772 117.721 977.885 106.479 976.333C92.0249 974.346 85.247 956.353 98.6395 951.535C108.275 948.078 121.886 952.815 128.745 955.727C123.573 946.799 117.122 936.673 110.562 926.656C108.275 930.031 101.851 938.198 94.4475 937.19C85.1654 935.911 80.8373 924.37 89.4118 921.294C95.6452 919.034 104.465 922.165 108.82 924.016C103.594 916.095 98.34 908.391 93.6309 901.613C90.9089 905.315 84.9476 912.175 78.1425 911.249C68.8604 909.97 64.5323 898.428 73.1068 895.353C78.5508 893.393 85.982 895.516 90.6639 897.34C83.8316 887.486 78.6597 880.273 77.2987 878.422C73.379 877.36 61.4292 873.985 58.4622 870.555C57.5545 869.579 56.8529 868.43 56.3995 867.177C55.9461 865.924 55.7502 864.592 55.8235 863.261C55.8968 861.931 56.2378 860.628 56.8261 859.433C57.4144 858.237 58.2379 857.172 59.2473 856.302C60.2567 855.431 61.4313 854.774 62.7007 854.368C63.9702 853.963 65.3085 853.817 66.6354 853.941C67.9624 854.064 69.2508 854.454 70.4235 855.087C71.5963 855.72 72.6292 856.584 73.4606 857.625C76.1827 860.946 77.8703 872.406 78.3875 876.897L78.8775 876.543C79.068 876.761 85.7915 886.098 94.8286 899.136L95.1825 899.3C95.1905 899.363 95.1905 899.427 95.1825 899.49C100.055 906.513 105.581 914.625 111.079 922.954C109.473 918.653 106.615 909.344 109.283 902.947C112.849 894.563 124.118 899.545 124.88 908.881C125.56 917.238 114.727 923.716 112.44 924.996C119.817 936.21 127.058 947.697 132.556 957.415L133.155 957.742L132.937 958.096C134.026 960.055 135.06 961.961 136.013 963.757C142.437 976.007 148.262 987.575 153.407 997.756C158.225 1007.31 162.417 1015.61 166.119 1022.61C165.493 1014.85 165.71 1004.02 170.501 997.184C178.667 985.534 194.237 996.803 192.278 1011.28C190.835 1022.36 177.007 1028.62 170.501 1030.96C171.182 1032.13 171.835 1033.28 172.488 1034.34C175.02 1038.64 180.845 1050.81 187.078 1064.28C185.745 1053.39 184.955 1034.34 192.849 1023.1C204.527 1006.44 226.82 1022.53 224.125 1043.27C221.866 1060.66 198.266 1069.75 190.753 1072.23C199.382 1091.01 207.739 1109.71 208.392 1111.13L206.214 1112.11C205.915 1111.46 176.898 1046.48 170.42 1035.59C169.712 1034.32 168.995 1033.01 168.269 1031.64Z" fill="#FFC727"/>
<path d="M1158.08 974.237C1158.08 974.237 1168.16 962.832 1177.14 962.641C1186.12 962.451 1186.34 974.782 1178.12 979.3C1169.9 983.819 1158.08 974.237 1158.08 974.237Z" fill="#FFC727"/>
<path d="M1120.41 1032.92C1120.41 1032.92 1136.12 1015.15 1150.35 1014.82C1164.59 1014.5 1164.7 1033.88 1151.88 1040.79C1139.06 1047.71 1120.41 1032.92 1120.41 1032.92Z" fill="#FFC727"/>
<path d="M1095.83 1062.7C1095.83 1062.7 1114.88 1048.58 1128.85 1051.22C1142.81 1053.86 1138.95 1072.72 1124.96 1076.94C1110.97 1081.16 1095.83 1062.7 1095.83 1062.7Z" fill="#FFC727"/>
<path d="M1064.91 1058.51C1072.42 1070.57 1066.13 1093.46 1066.13 1093.46C1066.13 1093.46 1043.43 1086 1042.34 1071.44C1041.25 1056.88 1057.45 1046.45 1064.91 1058.51Z" fill="#FFC727"/>
<path d="M1035.78 1079.31C1046.53 1096.57 1037.52 1129.31 1037.52 1129.31C1037.52 1129.31 1005.08 1118.61 1003.47 1097.79C1001.87 1076.97 1025 1062.05 1035.78 1079.31Z" fill="#FFC727"/>
<path d="M1067.03 1094.82L1066.38 1094.06L1068.86 1092.37C1074.3 1085.11 1081.49 1076.29 1090.03 1065.72L1093.6 1061.34C1087.99 1059.11 1072.75 1051.95 1071.82 1040.06C1070.71 1025.49 1086.88 1015.1 1094.39 1027.15C1099.83 1035.86 1098.04 1050.26 1096.65 1057.56C1102.09 1050.84 1107.86 1043.62 1113.88 1035.97C1114.88 1034.67 1115.95 1033.25 1117.01 1031.89C1110.45 1030.64 1095.42 1026.66 1092.24 1015.78C1088.13 1001.76 1101.76 988.201 1111.62 998.436C1118.72 1005.81 1119.98 1020.21 1120.14 1027.62C1126.15 1019.23 1132.8 1009.22 1139.19 999.144C1135.19 998.409 1125.09 995.905 1123 988.746C1120.27 979.763 1129.12 971.052 1135.44 977.613C1140.04 982.403 1140.88 991.74 1140.88 996.476C1145.94 988.446 1150.84 980.471 1155.12 973.421C1150.6 972.468 1141.89 969.828 1139.95 963.24C1137.23 954.23 1146.08 945.547 1152.39 952.107C1156.42 956.299 1157.51 963.948 1157.84 968.957C1164.02 958.694 1168.45 951.018 1169.63 949.031C1168.97 945.003 1167.15 932.699 1169.08 928.616C1169.63 927.44 1170.41 926.384 1171.37 925.508C1172.33 924.632 1173.45 923.954 1174.67 923.511C1175.89 923.069 1177.18 922.871 1178.48 922.93C1179.78 922.988 1181.05 923.302 1182.23 923.852C1183.4 924.403 1184.46 925.18 1185.34 926.138C1186.21 927.097 1186.89 928.219 1187.33 929.44C1187.78 930.66 1187.97 931.956 1187.91 933.254C1187.86 934.551 1187.54 935.824 1186.99 937C1185.14 940.947 1175.31 947.071 1171.42 949.385L1171.99 949.685C1171.83 949.93 1166.09 959.919 1157.89 973.502V973.883H1157.68C1153.27 981.233 1148.12 989.59 1142.79 998.001C1146.05 994.789 1153.43 988.31 1160.29 988.174C1169.41 987.984 1169.49 1000.31 1161.27 1004.83C1153.92 1008.86 1143.58 1001.65 1141.48 1000.07C1134.27 1011.39 1126.78 1022.72 1120.14 1031.73C1120.14 1032.16 1120.14 1032.41 1120.14 1032.41H1119.7C1118.37 1034.2 1116.98 1035.92 1115.81 1037.52C1107.26 1048.41 1099.1 1058.46 1091.91 1067.3C1085.19 1075.63 1079.31 1082.87 1074.46 1089.08C1081.29 1085.32 1091.23 1081.08 1099.45 1082.66C1113.41 1085.38 1109.52 1104.13 1095.53 1108.35C1084.83 1111.59 1073.46 1101.55 1068.72 1096.65L1066.41 1099.83C1063.55 1103.92 1054.84 1114.23 1045.15 1125.42C1054.62 1119.7 1071.5 1111.24 1085.05 1113.8C1105.03 1117.61 1099.48 1144.56 1079.47 1150.6C1062.68 1155.66 1044.71 1137.86 1039.38 1132.03C1025.77 1147.6 1012.16 1162.87 1011.12 1164.04L1009.32 1162.44C1009.81 1161.92 1057.2 1108.84 1064.47 1098.47C1065.23 1097.27 1066.11 1096.08 1067.03 1094.82Z" fill="#FFC727"/>
<path d="M1079.91 778.659L1073.07 785.491L1064.58 789.601L1058.81 808.819L1064.85 810.724L1068.91 806.451L1072.64 810.479L1067.63 824.825C1067.63 824.825 1060.88 826.784 1060.83 828.445C1060.77 830.105 1065.07 833.617 1065.07 833.617L1072.97 830.051L1094.74 827.574L1101 823.382L1094.2 786.58L1079.91 778.659Z" fill="#CCCCCC" stroke="#263238" stroke-linecap="round" stroke-linejoin="round"/>
<path d="M1072.86 830.051L1080.72 817.339" stroke="#263238" stroke-linecap="round" stroke-linejoin="round"/>
<path d="M1083.28 828.908L1088.59 816.441" stroke="#263238" stroke-linecap="round" stroke-linejoin="round"/>
<path d="M1094.63 827.574L1096.43 816.767" stroke="#263238" stroke-linecap="round" stroke-linejoin="round"/>
<path d="M1063.47 612.506L1116.44 696.481L1097.06 787.342L1076.2 782.769L1075.09 697.842L1041.74 664.66L1063.47 612.506Z" fill="white" stroke="#263238" stroke-linecap="round" stroke-linejoin="round"/>
<path d="M1022.53 584.605L1063.47 612.506L1018.06 730.125L942.199 707.886L934.632 640.679L943.533 581.992L980.743 577.664L1022.53 584.605Z" fill="white" stroke="#263238" stroke-linecap="round" stroke-linejoin="round"/>
<path d="M985.506 608.559L993.155 616.861C994.276 618.071 995.664 619.004 997.207 619.585C998.751 620.165 1000.41 620.378 1002.05 620.207C1003.69 620.035 1005.27 619.483 1006.66 618.595C1008.05 617.707 1009.21 616.508 1010.06 615.092L1027.73 585.476L1015.48 572.954L988.392 574.125L976.986 580.141L971.706 595.166C971.034 597.075 970.924 599.136 971.387 601.105C971.851 603.075 972.868 604.87 974.32 606.279C975.772 607.688 977.597 608.651 979.58 609.055C981.562 609.459 983.619 609.287 985.506 608.559Z" fill="white" stroke="#263238" stroke-linecap="round" stroke-linejoin="round"/>
<path d="M996.013 495.594C996.013 495.594 983.165 504.087 981.559 507.544C980.408 510.602 979.649 513.794 979.3 517.044L964.792 522.815L971.052 532.042C971.052 532.042 965.608 552.92 969.338 556.16C973.067 559.399 986.486 567.374 986.486 567.374L986.132 593.588C986.115 594.973 986.478 596.337 987.182 597.531C987.886 598.724 988.905 599.702 990.126 600.356C991.348 601.01 992.726 601.317 994.109 601.241C995.493 601.166 996.83 600.713 997.973 599.93L1021.03 584.196L1027.97 568.109C1027.97 568.109 1051.11 549.055 1050.84 537.323C1050.56 525.591 1044.9 507.381 1027.89 497.853C1010.88 488.326 996.857 492.654 996.857 492.654L996.013 495.594Z" fill="#CCCCCC" stroke="#263238" stroke-linecap="round" stroke-linejoin="round"/>
<path d="M1003.74 494.587C1003.74 494.587 1013.27 496.492 1004.29 519.085C995.306 541.678 986.514 558.745 999.852 573.091C1013.19 587.436 1022.39 596.201 1016.02 606.218C1009.65 616.235 991.087 612.723 996.476 635.398C1001.87 658.073 1019.86 662.618 1027.64 650.587C1035.43 638.556 1031.4 617.923 1032.27 613.703C1032.69 611.276 1033.77 609.009 1035.37 607.143L1040.57 608.178L1071.6 624.51C1071.6 624.51 1071.22 621.434 1073.26 602.053C1075.31 582.672 1057.86 580.086 1061.29 562.774C1064.72 545.462 1083.61 550.117 1076.83 525.373C1070.05 500.63 1030.2 483.699 1030.2 483.699C1030.2 483.699 1014.09 456.206 995.932 470.606C977.776 485.005 989.862 499.677 989.862 499.677L1003.74 494.587Z" fill="#263238" stroke="#263238" stroke-linecap="round" stroke-linejoin="round"/>
<path d="M986.486 519.14C985.969 521.372 986.486 523.413 987.711 523.686C988.936 523.958 990.433 522.433 990.869 520.201C991.304 517.969 990.869 515.955 989.644 515.656C988.419 515.356 987.031 516.935 986.486 519.14Z" fill="#263238"/>
<path d="M998.545 513.941C997.493 512.083 995.849 510.632 993.875 509.818C991.902 509.004 989.713 508.874 987.657 509.449" stroke="#263238" stroke-linecap="round" stroke-linejoin="round"/>
<path d="M839.877 581.665L838.843 569.661C839.374 565.695 839.374 561.677 838.843 557.711C837.805 553.582 836.468 549.533 834.842 545.598C833.481 542.168 831.684 540.154 829.697 543.529C827.71 546.905 828.554 553.192 828.554 553.192C827.977 549.986 826.834 546.907 825.178 544.101C823.055 541.379 816.032 539.228 809.037 537.078C802.041 534.928 805.226 538.82 806.315 540.726C807.404 542.631 813.964 545.87 813.964 545.87C813.964 545.87 803.647 542.114 800.707 541.243C797.767 540.372 793.113 543.965 796.406 545.925C799.699 547.623 803.144 549.009 806.696 550.062C802.961 550.948 799.316 552.178 795.808 553.737C792.732 555.506 794.093 558.909 795.971 558.99C798.479 558.849 800.977 558.577 803.457 558.174C803.457 558.174 798.448 562.066 799.482 564.353C800.517 566.639 809.962 563.645 809.962 563.645C810.864 567.411 812.796 570.851 815.542 573.581C818.553 576.194 821.849 578.459 825.369 580.331L833.943 590.403L839.877 581.665Z" fill="#CCCCCC" stroke="#263238" stroke-linecap="round" stroke-linejoin="round"/>
<path d="M814.018 545.87L810.861 559.589" stroke="#263238" stroke-linecap="round" stroke-linejoin="round"/>
<path d="M828.663 553.192L829.234 557.684C829.234 557.684 823.11 561.549 823.981 567.565" fill="#CCCCCC"/>
<path d="M828.663 553.192L829.234 557.684C829.234 557.684 823.11 561.549 823.981 567.565" stroke="#263238" stroke-linecap="round" stroke-linejoin="round"/>
<path d="M943.533 581.992L884.138 627.15L839.986 579.052L828.009 589.559L873.467 668.77L935.367 634.717L943.533 581.992Z" fill="white" stroke="#263238" stroke-linecap="round" stroke-linejoin="round"/>
<path d="M1032.24 878.939L1032.6 809.173C1033.66 763.715 1020.27 732.956 1018.01 730.833C1017.68 730.468 1017.24 730.22 1016.76 730.125L940.892 707.886C940.892 707.886 931.175 735.514 923.417 740.55C837.673 796.352 817.856 823.518 818.618 824.933C841.048 866.227 913.509 935.639 911.168 930.821L929.514 924.614L873.005 831.766L955.836 799.101L972.168 878.394L1055.46 1033.55L1078.16 1025.38L1032.24 878.939Z" fill="#263238" stroke="#263238" stroke-linecap="round" stroke-linejoin="round"/>
<path d="M911.004 930.848L902.348 948.051C902.348 948.051 893.692 950.773 890.453 952.379C887.214 953.985 885.58 954.312 883.893 956.898C882.789 958.838 882.155 961.01 882.042 963.24L925.104 964.955L944.513 945.492C950.61 939.341 929.351 924.642 929.351 924.642L911.004 930.848Z" fill="white" stroke="#263238" stroke-linecap="round" stroke-linejoin="round"/>
<path d="M1078.19 1025.36C1078.19 1025.36 1077.76 1036 1077.38 1045.55C1076.99 1055.11 1065.23 1069.56 1058.1 1074.63C1050.97 1079.69 1044.49 1080.48 1046.7 1067.25C1048.95 1055.83 1051.89 1044.56 1055.49 1033.5C1055.49 1033.5 1076.07 1024.73 1078.19 1025.36Z" fill="white" stroke="#263238" stroke-linecap="round" stroke-linejoin="round"/>
<path d="M580.903 91.9977L532.451 125.288" stroke="#263238" stroke-linecap="round" stroke-linejoin="round"/>
<path d="M587.653 87.343L584.414 89.5751" stroke="#263238" stroke-linecap="round" stroke-linejoin="round"/>
<path d="M514.975 55.5224L504.06 54.0253" stroke="#263238" stroke-linecap="round" stroke-linejoin="round"/>
<path d="M585.476 65.2128L521.916 56.4751" stroke="#263238" stroke-linecap="round" stroke-linejoin="round"/>
<path d="M597.044 22.3952L576.03 1" stroke="#263238" stroke-linecap="round" stroke-linejoin="round"/>
<path d="M605.728 31.2418L600.855 26.2605" stroke="#263238" stroke-linecap="round" stroke-linejoin="round"/>
<path d="M661.992 31.5685L686.355 6.68903" stroke="#263238" stroke-linecap="round" stroke-linejoin="round"/>
<path d="M657.338 36.332L659.679 33.9639" stroke="#263238" stroke-linecap="round" stroke-linejoin="round"/>
<path d="M715.753 66.5194L765.212 61.0209" stroke="#263238" stroke-linecap="round" stroke-linejoin="round"/>
<path d="M670.567 71.5552L709.791 67.1727" stroke="#263238" stroke-linecap="round" stroke-linejoin="round"/>
<path d="M704.211 114.972L726.668 138.163" stroke="#263238" stroke-linecap="round" stroke-linejoin="round"/>
<path d="M672.336 82.0623L699.856 110.48" stroke="#263238" stroke-linecap="round" stroke-linejoin="round"/>
<path d="M640.379 80.7285H627.831V116.877H640.379V80.7285Z" fill="#FFC727" stroke="#263238" stroke-linecap="round" stroke-linejoin="round"/>
<path d="M649.58 113.91V108.738H618.603V113.91H603.85V134.57H664.333V113.91H649.58Z" fill="#263238" stroke="#263238" stroke-linecap="round" stroke-linejoin="round"/>
<path d="M634.091 13.6031L648.763 43.3005L681.564 48.0913L657.828 71.2014L663.435 103.866L634.091 88.4591L604.748 103.866L610.355 71.2014L586.619 48.0913L619.42 43.3005L634.091 13.6031Z" fill="#FFC727" stroke="#263238" stroke-linecap="round" stroke-linejoin="round"/>
<path d="M593.016 51.1671L634.091 61.8647L670.24 52.8276" fill="#FFC727"/>
<path d="M593.016 51.1671L634.091 61.8647L670.24 52.8276" stroke="#263238" stroke-linecap="round" stroke-linejoin="round"/>
<path d="M634.908 26.5327V52.8276" stroke="#263238" stroke-linecap="round" stroke-linejoin="round"/>
<path d="M609.457 98.83L633.275 67.6083V80.7557" fill="#FFC727"/>
<path d="M609.457 98.83L633.275 67.6083V80.7557" stroke="#263238" stroke-linecap="round" stroke-linejoin="round"/>
<path d="M663.435 103.893L639.018 67.6083" stroke="#263238" stroke-linecap="round" stroke-linejoin="round"/>
<path d="M546.415 469.517C546.415 469.517 584.686 485.441 622.877 487.265C661.067 489.088 729.635 469.517 729.635 469.517L684.122 410.857H578.616L546.415 469.517Z" fill="#263238" stroke="#263238" stroke-linecap="round" stroke-linejoin="round"/>
<path d="M727.675 764.368C726.287 760.176 714.392 728.737 714.392 728.737C714.392 728.737 707.423 676.31 707.423 651.839C707.423 627.368 699.012 612.723 699.012 612.723L689.267 437.642L682.925 415.485H668.961L630.144 415.838L591.274 415.485H586.401L570.423 445.863L561.331 612.723C561.331 612.723 552.947 627.395 552.947 651.839C552.947 676.283 545.952 728.737 545.952 728.737C545.952 728.737 534.084 760.176 532.668 764.368C531.253 768.56 520.8 778.359 520.8 781.844C520.828 782.918 521.085 783.975 521.555 784.942C522.024 785.909 522.695 786.764 523.522 787.451H561.331C561.331 787.451 563.427 786.743 564.843 779.748C565.897 773.756 566.362 767.674 566.231 761.592C566.231 757.4 570.423 722.449 570.423 722.449L624.238 498.343H636.133L689.948 722.449C689.948 722.449 694.14 757.4 694.14 761.592C694.008 767.674 694.473 773.756 695.528 779.748C696.916 786.743 699.012 787.451 699.012 787.451H736.767C737.594 786.764 738.265 785.909 738.734 784.942C739.204 783.975 739.461 782.918 739.489 781.844C739.57 778.359 729.09 768.56 727.675 764.368Z" fill="white" stroke="#263238" stroke-linecap="round" stroke-linejoin="round"/>
<path d="M714.392 728.737C714.392 728.737 707.423 676.31 707.423 651.839C707.423 627.368 699.012 612.723 699.012 612.723L689.267 437.642L682.925 415.485H668.961L630.144 415.838L591.274 415.485H586.401L570.423 445.863L561.331 612.723C561.331 612.723 552.947 627.395 552.947 651.839C552.947 676.283 545.952 728.737 545.952 728.737L545.707 729.444H569.497C569.96 725.28 570.314 722.449 570.314 722.449L624.129 498.343H636.024L689.839 722.449C689.839 722.449 690.165 725.171 690.655 729.444H714.555L714.392 728.737Z" fill="#263238" stroke="#263238" stroke-linecap="round" stroke-linejoin="round"/>
<path d="M568.708 737.012L555.098 769.268H529.592C526.027 773.814 520.855 779.394 520.855 781.844C520.882 782.918 521.14 783.975 521.609 784.942C522.079 785.909 522.749 786.764 523.577 787.451H561.331C561.331 787.451 563.427 786.743 564.843 779.748C565.897 773.756 566.362 767.674 566.231 761.592C566.231 759.223 567.565 747.138 568.708 737.012Z" fill="#FFC727" stroke="#263238" stroke-linecap="round" stroke-linejoin="round"/>
<path d="M691.635 737.012L705.245 769.268H730.724C734.29 773.814 739.489 779.394 739.489 781.844C739.461 782.918 739.204 783.975 738.734 784.942C738.265 785.909 737.594 786.764 736.767 787.451H699.012C699.012 787.451 696.916 786.743 695.528 779.748C694.473 773.756 694.008 767.674 694.14 761.592C694.14 759.223 692.806 747.138 691.635 737.012Z" fill="#FFC727" stroke="#263238" stroke-linecap="round" stroke-linejoin="round"/>
<path d="M626.279 188.358C626.279 188.358 613.867 181.852 604.503 194.891C595.139 207.929 601.536 219.716 601.536 223.282C601.536 226.847 587.354 238.661 591.492 243.996C595.629 249.331 602.135 252.162 601.536 254.639C600.937 257.116 584.387 253.442 585.585 259.376C586.782 265.31 587.926 274.755 609.239 290.734C630.553 306.712 661.312 293.673 669.587 284.8C677.862 275.926 684.966 267.052 683.796 261.744C682.625 256.436 674.323 258.178 674.323 255.81C674.323 253.442 683.197 245.167 683.197 240.43C683.197 235.694 673.724 229.787 673.125 226.82C672.527 223.853 677.862 219.716 677.862 215.007C677.862 210.297 666.021 204.336 666.021 200.199C666.021 196.061 674.922 188.957 661.312 179.484C647.702 170.011 629.382 177.116 626.279 188.358Z" fill="#263238" stroke="#263238" stroke-linecap="round" stroke-linejoin="round"/>
<path d="M622.55 261.934L617.814 285.997C617.814 285.997 606.762 281.261 603.605 280.063C600.447 278.866 591.274 415.485 591.274 415.485H679.223L674.486 280.853L654.779 285.997L648.845 261.499L622.55 261.934Z" fill="white" stroke="#263238" stroke-linecap="round" stroke-linejoin="round"/>
<path d="M656.058 325.467L659.542 284.8L654.888 286.025L648.954 261.526L622.55 261.934L617.814 285.997L613.921 284.337L618.195 325.44L656.058 325.467Z" fill="white" stroke="#263238" stroke-linecap="round" stroke-linejoin="round"/>
<path d="M619.583 266.807C619.583 266.807 635.398 281.969 638.637 281.969C641.876 281.969 651.812 268.141 651.812 268.141L650.505 263.513L619.583 262.86V266.807Z" fill="#263238" stroke="#263238" stroke-linecap="round" stroke-linejoin="round"/>
<path d="M568.545 170.311L595.765 141.974L587.98 120.742C587.98 120.742 595.711 106.397 596.391 104.764C597.072 103.131 599.903 98.204 599.903 98.204C600.503 98.1666 601.105 98.2532 601.67 98.4583C602.235 98.6635 602.752 98.9829 603.189 99.3965C603.626 99.8102 603.972 100.309 604.208 100.863C604.443 101.416 604.562 102.012 604.557 102.614C605.096 107.859 605.187 113.141 604.83 118.401C604.203 120.824 611.036 134.189 608.314 140.178C605.592 146.166 577.8 184.193 577.8 184.193L568.545 170.311Z" fill="white" stroke="#263238" stroke-linecap="round" stroke-linejoin="round"/>
<path d="M604.557 106.86C604.557 106.86 595.928 119.327 596.01 120.47C596.135 121.526 596.335 122.573 596.609 123.601" stroke="#263238" stroke-linecap="round" stroke-linejoin="round"/>
<path d="M602.87 99.4833L591.383 116.469L591.355 121.995" stroke="#263238" stroke-linecap="round" stroke-linejoin="round"/>
<path d="M611.498 282.05C611.498 282.05 608.776 354.756 604.802 382.766C600.828 410.776 596.119 426.944 586.646 441.153C577.174 455.362 546.415 469.544 546.415 469.544C546.415 469.544 568.49 393.327 572.846 372.531C577.201 351.734 577.174 307.719 577.174 307.719C563.674 297.108 551.758 284.624 541.787 270.645C526.027 248.161 513.233 224.942 513.913 221.648C514.594 218.355 576.52 158.66 576.52 158.66L589.232 175.809L554.771 228.345C554.771 228.345 587.055 265.881 589.396 267.841C591.736 269.801 600.855 271.026 611.498 282.05Z" fill="#FFC727" stroke="#263238" stroke-linecap="round" stroke-linejoin="round"/>
<path d="M609.62 280.199V280.472C609.62 280.472 596.609 304.534 596.609 327.018C596.609 339.948 600.529 381.459 603.85 389.625C604.203 387.366 604.557 385.079 604.911 382.657C608.831 354.674 611.607 281.942 611.607 281.942C610.872 281.397 610.328 280.771 609.62 280.199Z" fill="#FFC727" stroke="#263238" stroke-linecap="round" stroke-linejoin="round"/>
<path d="M704.293 169.63L675.112 143.09L681.4 121.314C681.4 121.314 672.744 107.513 671.955 105.935C671.166 104.356 668.008 99.6194 668.008 99.6194C667.404 99.6212 666.806 99.7479 666.253 99.9916C665.701 100.235 665.204 100.591 664.795 101.036C664.386 101.48 664.073 102.005 663.877 102.576C663.68 103.148 663.604 103.754 663.653 104.356C663.457 109.631 663.721 114.914 664.442 120.144C665.232 122.512 659.325 136.313 662.482 142.219C665.64 148.126 695.991 184.03 695.991 184.03L704.293 169.63Z" fill="white" stroke="#263238" stroke-linecap="round" stroke-linejoin="round"/>
<path d="M664.061 108.902C664.061 108.902 673.534 120.715 673.534 121.913C673.478 122.974 673.342 124.03 673.125 125.071" stroke="#263238" stroke-linecap="round" stroke-linejoin="round"/>
<path d="M665.232 101.389L677.862 117.585L678.243 123.083" stroke="#263238" stroke-linecap="round" stroke-linejoin="round"/>
<path d="M664.551 282.05C664.551 282.05 667.273 354.756 671.247 382.766C675.221 410.776 679.93 426.944 689.403 441.153C698.876 455.362 729.635 469.544 729.635 469.544C729.635 469.544 707.532 393.327 703.204 372.531C698.876 351.734 698.849 307.719 698.849 307.719C712.355 297.116 724.272 284.631 734.235 270.645C750.023 248.161 769.349 221.839 768.179 218.681C767.008 215.524 697.406 160.566 697.406 160.566L687.525 179.62L721.632 231.339C721.632 231.339 688.968 266.045 686.518 268.005C684.068 269.964 675.194 271.026 664.551 282.05Z" fill="#FFC727" stroke="#263238" stroke-linecap="round" stroke-linejoin="round"/>
<path d="M591.274 282.431C587.98 295.661 577.174 307.692 577.174 307.692C577.174 307.692 583.843 292.34 582.182 279.111" stroke="#263238" stroke-linecap="round" stroke-linejoin="round"/>
<path d="M680.584 279.192C685.828 289.233 691.939 298.797 698.849 307.774C698.849 307.774 690.519 277.559 690.519 273.421" stroke="#263238" stroke-linecap="round" stroke-linejoin="round"/>
<path d="M666.402 280.199V280.472C666.402 280.472 679.413 304.534 679.413 327.018C679.413 339.948 675.521 381.459 672.173 389.625C671.819 387.366 671.492 385.079 671.138 382.657C667.191 354.674 664.442 281.942 664.442 281.942C665.177 281.397 665.803 280.771 666.402 280.199Z" fill="#FFC727" stroke="#263238" stroke-linecap="round" stroke-linejoin="round"/>
<path d="M611.09 237.872C611.09 237.872 603.223 226.439 602.026 236.293C600.828 246.147 610.192 253.251 610.192 253.251L611.09 237.872Z" fill="white" stroke="#263238" stroke-linecap="round" stroke-linejoin="round"/>
<path d="M664.36 235.64C664.36 235.64 671.057 228.943 673.017 236.81C674.976 244.677 664.85 251.809 664.85 251.809L664.36 235.64Z" fill="white" stroke="#263238" stroke-linecap="round" stroke-linejoin="round"/>
<path d="M628.647 199.028C628.647 199.028 626.878 209.073 619.773 211.441C616.095 212.398 612.799 214.459 610.328 217.347C610.328 217.347 609.158 251.672 611.526 255.211C613.894 258.75 629.382 273.748 637.14 273.748C644.898 273.748 663.353 259.92 663.952 256.382C664.551 252.843 663.571 219.688 662.972 217.32C662.373 214.952 654.806 211.413 648.164 211.413C641.523 211.413 636.351 204.309 635.153 201.941C633.955 199.573 628.647 199.028 628.647 199.028Z" fill="white" stroke="#263238" stroke-linecap="round" stroke-linejoin="round"/>
<path d="M633.765 227.229C635.325 228.507 637.21 229.327 639.209 229.597C640.079 229.515 640.917 229.225 641.651 228.751C642.385 228.277 642.995 227.634 643.428 226.875" stroke="#263238" stroke-linecap="round" stroke-linejoin="round"/>
<path d="M622.033 215.932C622.302 215.058 622.779 214.261 623.421 213.61C624.064 212.959 624.855 212.473 625.725 212.192C626.596 211.912 627.522 211.845 628.424 211.999C629.326 212.152 630.178 212.521 630.907 213.074" stroke="#263238" stroke-linecap="round" stroke-linejoin="round"/>
<path d="M644.081 213.346C644.081 213.346 650.396 208.474 655.269 216.776" stroke="#263238" stroke-linecap="round" stroke-linejoin="round"/>
<path d="M628.185 238.362C628.185 238.362 641.795 246.528 650.669 235.422" stroke="#263238" stroke-linecap="round" stroke-linejoin="round"/>
<path d="M628.457 218.518C628.457 220.151 627.531 221.485 626.388 221.485C625.245 221.485 624.319 220.151 624.319 218.518C624.319 216.885 625.245 215.578 626.388 215.578C627.531 215.578 628.457 216.885 628.457 218.518Z" fill="#263238"/>
<path d="M650.342 218.79C650.342 220.423 649.416 221.757 648.273 221.757C647.13 221.757 646.204 220.423 646.204 218.79C646.204 217.157 647.13 215.823 648.273 215.823C649.416 215.823 650.342 217.157 650.342 218.79Z" fill="#263238"/>
<path d="M233.734 584.605L192.795 612.506L225.35 750.921L324.514 732.684L325.494 587.708L275.517 577.664L233.734 584.605Z" fill="white" stroke="#263238" stroke-linecap="round" stroke-linejoin="round"/>
<path d="M256.572 610.709L269.257 627.504L271.326 717.522L287.358 742.429L299.362 704.402L275.245 627.259L281.261 608.232L267.95 595.248L256.572 610.709Z" fill="#FFC727" stroke="#263238" stroke-linecap="round" stroke-linejoin="round"/>
<path d="M270.754 608.64L253.469 627.368L228.508 585.558L240.784 573.036L267.869 574.207L290.87 586.075L292.095 616.807L270.754 608.64Z" fill="white" stroke="#263238" stroke-linecap="round" stroke-linejoin="round"/>
<path d="M282.785 496.275C282.785 496.275 293.673 507.163 294.626 510.81C295.179 514.028 295.316 517.303 295.034 520.555L308.127 529.048L300.179 536.887C300.179 536.887 307.801 558.364 303.391 560.787C298.981 563.21 278.239 568.545 278.239 568.545L270.754 608.559L241.002 578.208L237.409 561.168C237.409 561.168 218.355 537.895 221.077 526.517C223.799 515.138 232.727 498.262 251.264 492.273C269.801 486.285 270.89 488.544 270.89 488.544L282.785 496.275Z" fill="#CCCCCC" stroke="#263238" stroke-linecap="round" stroke-linejoin="round"/>
<path d="M246.392 544.291C246.392 544.291 257.552 541.569 257.28 536.343C257.008 531.117 249.386 526.898 255.238 522.896C261.091 518.895 267.025 517.18 266.916 514.159C266.807 511.137 261.472 508.388 265.038 505.23C268.604 502.073 282.704 496.275 282.704 496.275C282.704 496.275 276.797 479.942 254.993 479.344C233.19 478.745 213.237 505.802 214.68 522.896C216.123 539.991 235.041 562.638 239.614 563.972C244.187 565.306 246.392 544.291 246.392 544.291Z" fill="#263238" stroke="#263238" stroke-linecap="round" stroke-linejoin="round"/>
<path d="M251.019 547.857C251.019 547.857 243.86 537.622 238.198 546.115C232.537 554.608 245.629 563.101 252.38 562.829C259.131 562.556 260.546 559.48 260.546 559.48" fill="#CCCCCC"/>
<path d="M251.019 547.857C251.019 547.857 243.86 537.622 238.198 546.115C232.537 554.608 245.629 563.101 252.38 562.829C259.131 562.556 260.546 559.48 260.546 559.48" stroke="#263238" stroke-linecap="round" stroke-linejoin="round"/>
<path d="M287.549 521.236C287.549 523.522 286.705 525.4 285.453 525.455C284.201 525.509 283.139 523.686 283.058 521.426C282.976 519.167 283.901 517.262 285.126 517.207C286.351 517.153 287.467 518.949 287.549 521.236Z" fill="#263238"/>
<path d="M276.742 513.777C276.742 513.777 283.194 506.02 290.08 509.504" stroke="#263238" stroke-linecap="round" stroke-linejoin="round"/>
<path d="M176.354 778.659L183.295 785.491L191.788 789.601L197.531 808.819L191.515 810.724L187.46 806.451L183.73 810.479L188.739 824.716C188.739 824.716 195.49 826.676 195.544 828.336C195.598 829.996 191.298 833.508 191.298 833.508L183.377 829.942L161.6 827.465L155.312 823.273L162.145 786.471L176.354 778.659Z" fill="#CCCCCC" stroke="#263238" stroke-linecap="round" stroke-linejoin="round"/>
<path d="M183.376 830.051L175.537 817.339" stroke="#263238" stroke-linecap="round" stroke-linejoin="round"/>
<path d="M172.978 828.908L167.67 816.441" stroke="#263238" stroke-linecap="round" stroke-linejoin="round"/>
<path d="M161.627 827.574L159.831 816.767" stroke="#263238" stroke-linecap="round" stroke-linejoin="round"/>
<path d="M192.795 612.506L139.824 696.481L159.205 787.342L180.056 782.769L181.172 697.842L207.63 664.497L192.795 612.506Z" fill="white" stroke="#263238" stroke-linecap="round" stroke-linejoin="round"/>
<path d="M429.503 566.149L430.51 554.172C429.979 550.198 429.979 546.17 430.51 542.195C431.553 538.067 432.89 534.019 434.512 530.082C435.873 526.68 437.669 524.638 439.656 528.014C441.643 531.389 440.8 537.677 440.8 537.677C441.39 534.474 442.532 531.397 444.175 528.585C446.298 525.863 453.321 523.74 460.344 521.59C467.367 519.439 464.155 523.305 463.066 525.21C461.977 527.115 455.417 530.382 455.417 530.382C455.417 530.382 465.733 526.598 468.7 525.727C471.667 524.856 476.268 528.449 473.001 530.436C469.692 532.12 466.24 533.504 462.685 534.574C466.419 535.464 470.063 536.694 473.573 538.249C476.622 539.991 475.261 543.42 473.41 543.475C470.892 543.349 468.383 543.076 465.897 542.658C465.897 542.658 470.905 546.578 469.871 548.865C468.837 551.151 459.391 548.157 459.391 548.157C458.498 551.926 456.564 555.368 453.811 558.092C450.792 560.695 447.497 562.959 443.984 564.843L435.41 574.887L429.503 566.149Z" fill="#CCCCCC" stroke="#263238" stroke-linecap="round" stroke-linejoin="round"/>
<path d="M455.335 530.382L458.52 544.074" stroke="#263238" stroke-linecap="round" stroke-linejoin="round"/>
<path d="M440.691 537.786L440.119 542.304C440.119 542.304 446.244 546.17 445.373 552.185" fill="#CCCCCC"/>
<path d="M440.691 537.786L440.119 542.304C440.119 542.304 446.244 546.17 445.373 552.185" stroke="#263238" stroke-linecap="round" stroke-linejoin="round"/>
<path d="M325.494 587.708L372.123 627.15L429.394 563.536L441.371 574.071L382.793 668.77L325.576 646.259L325.494 587.708Z" fill="white" stroke="#263238" stroke-linecap="round" stroke-linejoin="round"/>
<path d="M225.35 750.921L232.455 879.946L178.014 1025.36L200.716 1033.52L283.983 878.367L296.151 809.2L370.789 821.721L326.964 924.642L345.338 930.848C345.338 930.848 437.751 791.371 439.357 791.289C440.963 791.207 327.753 745.695 327.753 745.695L324.514 732.684L225.35 750.921Z" fill="#263238" stroke="#263238" stroke-linecap="round" stroke-linejoin="round"/>
<path d="M345.256 930.848L353.912 948.051C353.912 948.051 362.541 950.773 365.807 952.379C369.074 953.985 370.68 954.312 372.368 956.898C373.471 958.838 374.105 961.01 374.219 963.24L331.156 964.955L311.748 945.493C305.65 939.341 326.882 924.642 326.882 924.642L345.256 930.848Z" fill="white" stroke="#263238" stroke-linecap="round" stroke-linejoin="round"/>
<path d="M178.069 1025.36C178.069 1025.36 178.504 1036 178.885 1045.55C179.266 1055.11 191.025 1069.56 198.157 1074.63C205.289 1079.69 211.767 1080.48 209.562 1067.25C207.309 1055.83 204.373 1044.56 200.77 1033.5C200.77 1033.5 180.246 1024.73 178.069 1025.36Z" fill="white" stroke="#263238" stroke-linecap="round" stroke-linejoin="round"/>
<path d="M784.266 782.551H469.517V962.396H784.266V782.551Z" fill="#DBDBDB" stroke="#263238" stroke-linecap="round" stroke-linejoin="round"/>
<path d="M968.82 957.687H284.908V1137.53H968.82V957.687Z" fill="#ADADAD" stroke="#263238" stroke-linecap="round" stroke-linejoin="round"/>
<path d="M1170.99 1080.34H82.77V1260.19H1170.99V1080.34Z" fill="#919191" stroke="#263238" stroke-linecap="round" stroke-linejoin="round"/>
<path d="M626.987 802.422L641.659 832.147L674.459 836.91L650.723 860.048L656.33 892.712L626.987 877.306L597.643 892.712L603.251 860.048L579.542 836.91L612.315 832.147L626.987 802.422Z" fill="#FFC727" stroke="#263238" stroke-linecap="round" stroke-linejoin="round"/>
<path d="M380.779 965.309L395.45 995.006L428.251 999.77L404.515 1022.91L410.122 1055.57L380.779 1040.16L351.435 1055.57L357.042 1022.91L333.306 999.77L366.107 995.006L380.779 965.309Z" fill="#FFC727" stroke="#263238" stroke-linecap="round" stroke-linejoin="round"/>
<path d="M878.013 965.309L892.685 995.006L925.458 999.77L901.749 1022.91L907.329 1055.57L878.013 1040.16L848.67 1055.57L854.277 1022.91L830.541 999.77L863.341 995.006L878.013 965.309Z" fill="#FFC727" stroke="#263238" stroke-linecap="round" stroke-linejoin="round"/>
<path d="M1 1260.21H1257.76" stroke="#263238" stroke-linecap="round" stroke-linejoin="round"/>
</svg>
